<?xml version="1.0" encoding="UTF-8"?>
<svg version="1.1" xmlns="http://www.w3.org/2000/svg" width="5000" height="5000">
<path d="M0 0 C1650 0 3300 0 5000 0 C5000 1650 5000 3300 5000 5000 C3350 5000 1700 5000 0 5000 C0 3350 0 1700 0 0 Z " fill="#FEFEFE" transform="translate(0,0)"/>
<path d="M0 0 C2.08476639 -0.00300056 4.16952811 -0.00711603 6.25429201 -0.01150417 C12.89115066 -0.02510431 19.52799762 -0.03479848 26.16486919 -0.03870606 C32.87759594 -0.04268855 39.59017852 -0.05476093 46.30285692 -0.08106136 C102.77382484 -0.2973398 158.82552099 1.89016777 215.07922411 7.20018864 C215.96787157 7.28375614 216.85651903 7.36732365 217.7720952 7.4534235 C229.4496298 8.55495144 241.11834066 9.7318689 252.7832036 10.95989323 C255.01859589 11.19384345 257.25437548 11.42360458 259.49035692 11.65184879 C278.97228231 13.64504772 298.37053714 16.12195375 317.76672411 18.82518864 C318.86401842 18.97734837 319.96131273 19.12950809 321.09185839 19.28627872 C324.23806539 19.72426502 327.38338997 20.16806014 330.52844286 20.61425114 C331.46134645 20.74435078 332.39425005 20.87445042 333.35542345 21.00849247 C338.34407088 21.72521678 343.23259393 22.62752793 348.14253283 23.76378727 C350.40234303 24.27299814 352.65824222 24.64166646 354.95422411 24.94628239 C355.78470263 25.05955875 356.61518114 25.17283512 357.47082567 25.28954411 C358.33159716 25.4044318 359.19236864 25.5193195 360.07922411 25.63768864 C374.5800528 27.65155154 388.89405879 30.32556622 403.24206591 33.22753239 C409.64470906 34.52136297 416.0535525 35.77010221 422.47302294 36.97753239 C448.83564489 41.94984909 474.99010453 47.9645588 501.07922411 54.20018864 C501.92901842 54.40297428 502.77881273 54.60575993 503.65435839 54.81469059 C547.48442336 65.28092941 547.48442336 65.28092941 567.57727098 71.44139957 C571.81290857 72.72597819 576.07141806 73.92907058 580.32922411 75.13768864 C581.17863573 75.38091862 582.02804735 75.6241486 582.90319872 75.87474918 C587.71196791 77.25079148 592.52671845 78.60183038 597.34875536 79.93065739 C614.48767781 84.689102 631.32082991 90.15501254 648.16038561 95.8657465 C653.37389383 97.63169552 658.59754005 99.36390181 663.82922411 101.07518864 C733.69411645 123.9689517 802.03284681 151.44802347 868.62316942 182.58544254 C871.05346699 183.72093196 873.48487479 184.85371073 875.9180913 185.98290348 C903.8248076 198.93701026 931.55894986 212.33330747 958.66418505 226.90282536 C961.4997667 228.42610487 964.34045654 229.93968848 967.18078661 231.45409489 C980.683502 238.67118447 994.07422153 246.06374324 1007.36926317 253.65624332 C1009.97374323 255.14009304 1012.58403916 256.61310087 1015.19641161 258.08300114 C1028.33599244 265.49903528 1041.22556199 273.30460763 1054.0992589 281.16883183 C1058.39642731 283.79110237 1062.71376322 286.37775913 1067.04016161 288.95140934 C1077.66348449 295.27189968 1088.09987471 301.86785835 1098.49963427 308.54882145 C1100.18327282 309.62663057 1101.87031191 310.69915135 1103.5611577 311.76561832 C1112.33389159 317.30156751 1120.95318876 323.06464791 1129.57922411 328.82518864 C1130.37913774 329.35898136 1131.17905138 329.89277409 1132.00320482 330.44274235 C1143.74959376 338.28258635 1155.4864655 346.13406626 1167.07922411 354.20018864 C1167.7735454 354.68278141 1168.46786669 355.16537418 1169.18322802 355.66259098 C1179.81062783 363.06603011 1190.25782234 370.70220749 1200.66320848 378.41356754 C1203.07361339 380.19603956 1205.48945968 381.97085422 1207.90734911 383.74315739 C1217.74671563 390.95882605 1227.4966844 398.27834912 1237.1627202 405.7246027 C1238.95178161 407.10206603 1240.74342213 408.47607749 1242.53625536 409.84862614 C1255.27664437 419.60896299 1267.84137528 429.57015015 1280.27063036 439.72362614 C1281.87157891 441.03066404 1283.47520387 442.33442219 1285.07922411 443.63768864 C1290.52345047 448.06903567 1295.9003198 452.57282403 1301.24841356 457.11913395 C1304.61811156 459.97911716 1308.01971318 462.79292904 1311.45422411 465.57518864 C1320.29445696 472.77642941 1328.89406097 480.27942025 1337.32922411 487.95018864 C1340.71957197 491.03027172 1344.20033591 493.9507862 1347.76672411 496.82518864 C1351.55117376 499.88676589 1355.04410425 503.04582365 1358.42688036 506.54003239 C1360.12286005 508.24403089 1361.88412107 509.81732947 1363.70422411 511.38768864 C1369.00556991 515.96658616 1374.12579054 520.74001162 1379.25695848 525.50731754 C1380.50490752 526.66665283 1381.75364462 527.82514024 1383.00305223 528.98290348 C1389.50641129 535.00997383 1395.99318811 541.02719381 1402.20423937 547.35764408 C1403.93679474 549.06022352 1405.71764916 550.63198435 1407.57116747 552.20043278 C1413.22828967 557.12235848 1418.47724863 562.45398193 1423.77063036 567.75878239 C1424.88571422 568.87319082 1426.00094633 569.98745093 1427.11631823 571.10157108 C1429.44176173 573.42554885 1431.76540922 575.75130328 1434.08776903 578.07836246 C1437.04510314 581.04139315 1440.00690539 583.99991034 1442.97007895 586.95709991 C1445.27033009 589.25371496 1447.56816642 591.55273429 1449.86530924 593.852458 C1450.95567708 594.9434867 1452.04677091 596.03379041 1453.13864374 597.12331295 C1458.48789269 602.46356858 1463.78023223 607.81249155 1468.67662096 613.57740116 C1470.84946654 616.09134575 1473.20178631 618.37869055 1475.57922411 620.70018864 C1479.33019948 624.36290576 1482.81365486 628.14932267 1486.24523973 632.11229801 C1489.27014919 635.55599153 1492.42744077 638.8729452 1495.57922411 642.20018864 C1499.97789407 646.843733 1504.28761578 651.53909759 1508.4805913 656.36962223 C1510.59520775 658.79103246 1512.77287182 661.15139314 1514.95422411 663.51268864 C1518.26259325 667.13542769 1521.43934768 670.81711755 1524.51672411 674.63768864 C1527.73867701 678.63245564 1531.08602513 682.44548289 1534.57922411 686.20018864 C1538.80873691 690.75129025 1542.80002729 695.44316194 1546.69641161 700.28221989 C1549.45464877 703.65992998 1552.29197726 706.96223462 1555.14172411 710.26268864 C1559.15697904 714.92298452 1563.08515832 719.63067591 1566.89953661 724.45800114 C1569.14659192 727.28494169 1571.42347298 730.08562878 1573.70617723 732.88378239 C1579.75113671 740.29463653 1585.71934413 747.75897706 1591.59875536 755.30175114 C1593.21477225 757.37400498 1594.83454228 759.4432983 1596.45422411 761.51268864 C1603.61602487 770.67678769 1610.6672813 779.91458426 1617.6158452 789.24120426 C1619.08351178 791.20592842 1620.55860176 793.16484207 1622.03625536 795.12206364 C1633.80424159 810.71870199 1645.12518061 826.61735211 1656.2955327 842.64598942 C1658.09945028 845.22915199 1659.91048267 847.80717961 1661.72375536 850.38378239 C1668.6515728 860.23260837 1675.47254491 870.13328015 1682.07922411 880.20018864 C1682.6807329 881.11477848 1683.28224169 882.02936832 1683.90197802 882.97167301 C1698.82006632 905.66601877 1713.57438634 928.44946578 1727.58508348 951.71874332 C1728.90767163 953.91527696 1730.23463606 956.10907157 1731.56359911 958.30175114 C1736.99433562 967.28140258 1742.25316977 976.35817982 1747.49133348 985.4511652 C1749.20669991 988.42088014 1750.9315366 991.38497046 1752.65734911 994.34862614 C1760.01226189 1007.00190089 1767.15848916 1019.74195591 1774.07922411 1032.63768864 C1777.14088735 1038.33817672 1780.28085711 1043.99330025 1783.48278856 1049.61620426 C1786.46942633 1054.92398995 1789.18097846 1060.3625495 1791.88989305 1065.81540775 C1794.28162989 1070.62382706 1796.71730213 1075.4068816 1799.19250536 1080.17284489 C1799.53362352 1080.82998981 1799.87474169 1081.48713474 1800.22619677 1082.16419315 C1800.92386859 1083.50796523 1801.62161291 1084.85169967 1802.31942797 1086.19539738 C1812.39393697 1105.61815157 1821.82355599 1125.28456094 1830.82531786 1145.22753239 C1832.64586026 1149.25662643 1834.50581242 1153.26381445 1836.39172411 1157.26268864 C1852.61419469 1192.00361751 1867.33920852 1227.40770942 1881.07922411 1263.20018864 C1881.61610013 1264.59393328 1882.15304996 1265.98764949 1882.69006395 1267.38134098 C1891.58916342 1290.50412983 1900.06195237 1313.75704404 1908.07922411 1337.20018864 C1908.52715319 1338.50950352 1908.52715319 1338.50950352 1908.98413134 1339.8452692 C1920.57535357 1373.77509248 1931.46729975 1407.88974667 1940.58313036 1442.57518864 C1941.72001705 1446.89259048 1942.92696866 1451.18314025 1944.18273973 1455.46727848 C1952.11244483 1482.53859265 1958.67090608 1509.98613141 1964.63058519 1537.55007267 C1965.74827889 1542.71109799 1966.9004695 1547.86350191 1968.07141161 1553.01268864 C1976.80837716 1591.50175202 1983.85783044 1630.22880521 1990.07922411 1669.20018864 C1990.24617785 1670.24348331 1990.24617785 1670.24348331 1990.41650438 1671.30785465 C1991.73882902 1679.59200227 1992.93877507 1687.88921963 1994.07922411 1696.20018864 C1994.29462579 1697.74951799 1994.51012715 1699.29883349 1994.72570848 1700.84813786 C2001.0371585 1746.40370178 2005.68920765 1792.07700769 2008.89172411 1837.95018864 C2008.9447431 1838.70785904 2008.99776209 1839.46552944 2009.05238771 1840.24615955 C2010.2837324 1857.88575478 2011.47540154 1875.52617068 2012.07922411 1893.20018864 C2012.12307238 1894.46035801 2012.16692064 1895.72052738 2012.21209764 1897.01888371 C2013.09136803 1922.92566363 2013.26706325 1948.82674068 2013.26452684 1974.7468195 C2013.26444573 1979.07824231 2013.27138923 1983.409559 2013.28503466 1987.74096012 C2013.37251251 2015.97648911 2012.8211813 2044.09362756 2011.33393908 2072.29126835 C2011.03234427 2078.02973204 2010.76714199 2083.76975837 2010.50656462 2089.51021194 C2008.74675045 2127.98600856 2005.09075616 2166.31131019 2000.61682177 2204.55712223 C2000.16989885 2208.39039409 1999.74749128 2212.22567635 1999.34094286 2216.06346989 C1992.36021477 2281.32318365 1980.94145837 2346.79296402 1965.90148973 2410.66796207 C1965.03626942 2414.38471014 1964.20233734 2418.10740074 1963.37609911 2421.83300114 C1957.88591848 2446.57911457 1951.99026284 2471.20397401 1944.85314989 2495.53221989 C1943.34743863 2500.72288634 1941.90535593 2505.9315542 1940.45422411 2511.13768864 C1939.33299295 2515.15958813 1938.20784931 2519.1803578 1937.07922411 2523.20018864 C1936.64646166 2524.75141422 1936.64646166 2524.75141422 1936.20495653 2526.3339777 C1933.20671417 2536.97315493 1929.93089902 2547.52303164 1926.64172411 2558.07518864 C1926.18843233 2559.53169834 1926.18843233 2559.53169834 1925.72598314 2561.01763248 C1919.57494883 2580.76888192 1913.24037639 2600.45928312 1906.7673955 2620.10729313 C1906.0882691 2622.17268064 1905.41385385 2624.23956395 1904.73986864 2626.30663395 C1902.70432611 2632.51988313 1900.57313784 2638.6521391 1898.08508348 2644.69970036 C1896.4966548 2648.6484107 1895.07648332 2652.65629593 1893.63122606 2656.65917301 C1881.49171746 2690.25736295 1868.21062308 2723.39327914 1854.07922411 2756.20018864 C1853.72473192 2757.02454411 1853.37023973 2757.84889957 1853.00500536 2758.69823551 C1842.24163469 2783.71632111 1830.95944142 2808.4473676 1819.14422655 2832.98552799 C1818.09161928 2835.17441301 1817.04250706 2837.36493462 1815.99475145 2839.55614567 C1809.43599552 2853.27243744 1802.84253558 2866.95401065 1795.65734911 2880.35643864 C1793.6702848 2884.06604523 1791.73449133 2887.79963892 1789.81359911 2891.54393864 C1783.12886242 2904.56898192 1776.22669333 2917.41768661 1768.95813036 2930.12596989 C1766.59997592 2934.2563593 1764.34503863 2938.42285555 1762.14172411 2942.63768864 C1756.50594477 2953.37308018 1750.23492844 2963.75819802 1744.07922411 2974.20018864 C1743.43888231 2975.28976871 1742.79854052 2976.37934879 1742.13879442 2977.50194645 C1709.45245342 3033.10948219 1674.10063543 3087.08882192 1636.07922411 3139.20018864 C1635.52798876 3139.95622379 1634.97675341 3140.71225895 1634.40881395 3141.49120426 C1625.13530764 3154.19112004 1615.64582595 3166.72006171 1606.07922411 3179.20018864 C1605.12996937 3180.44104652 1604.18074653 3181.68192881 1603.23156786 3182.92284489 C1593.0659709 3196.19486919 1582.65839265 3209.25618294 1572.07922411 3222.20018864 C1571.25164598 3223.21339176 1570.42406786 3224.22659489 1569.57141161 3225.27050114 C1568.10776141 3227.06054023 1566.64296886 3228.84964604 1565.17688036 3230.63768864 C1563.76404817 3232.36360655 1562.35526702 3234.09284765 1560.95031786 3235.82518864 C1556.23188413 3241.63249169 1551.41041959 3247.33836488 1546.52356005 3253.00365543 C1543.45943693 3256.56367499 1540.46354183 3260.16670653 1537.51672411 3263.82518864 C1533.41621178 3268.87827008 1529.06337654 3273.65328211 1524.64172411 3278.42284489 C1521.98056066 3281.30712417 1519.39223403 3284.24355997 1516.82141161 3287.20800114 C1514.00337987 3290.43041411 1511.12370798 3293.59713843 1508.25500536 3296.77440739 C1506.40478848 3298.83721651 1504.57977602 3300.91731234 1502.76672411 3303.01268864 C1498.18622703 3308.26865073 1493.42224767 3313.35719312 1488.68176317 3318.46825504 C1487.0779261 3320.20159145 1485.48002037 3321.94020403 1483.88391161 3323.68065739 C1479.26079948 3328.71765086 1474.63053389 3333.72048583 1469.74281359 3338.50415897 C1468.14554683 3340.13257262 1466.68177271 3341.81596149 1465.21179247 3343.5593195 C1459.70682025 3349.8811975 1453.70046018 3355.72271291 1447.77063036 3361.64159489 C1446.47685977 3362.93604054 1445.18323754 3364.23063448 1443.88975573 3365.52536869 C1441.18915172 3368.22744014 1438.48676518 3370.92771244 1435.78308153 3373.62670231 C1432.33577862 3377.06830854 1428.89298561 3380.51438568 1425.45152426 3383.96183205 C1422.78432199 3386.63266575 1420.11472043 3389.30109108 1417.4444108 3391.96881771 C1416.17475191 3393.23781447 1414.90582168 3394.50754074 1413.63766718 3395.77804089 C1401.67843632 3407.75453978 1401.67843632 3407.75453978 1395.61912584 3412.88047123 C1393.30887918 3414.86038506 1391.20058461 3417.02149407 1389.07922411 3419.20018864 C1385.59456882 3422.7790238 1381.95547936 3426.08013953 1378.18469286 3429.34862614 C1374.73651426 3432.38097615 1371.41249203 3435.54269851 1368.07922411 3438.70018864 C1363.42516131 3443.10882235 1358.72004796 3447.43029704 1353.87854052 3451.63280582 C1351.64334998 3453.57987817 1349.45452408 3455.57513333 1347.26672411 3457.57518864 C1343.80392329 3460.7044169 1340.27243408 3463.70519213 1336.64172411 3466.63768864 C1332.83834908 3469.71355452 1329.17839759 3472.8877203 1325.57922411 3476.20018864 C1321.18543863 3480.23973682 1316.66083587 3484.04698483 1312.01672411 3487.79393864 C1308.71569108 3490.49797633 1305.49157198 3493.28130095 1302.26672411 3496.07518864 C1297.04874543 3500.58480884 1291.71161321 3504.8979673 1286.2618413 3509.12328434 C1282.25844253 3512.23896808 1278.36746042 3515.46073156 1274.51672411 3518.76268864 C1269.35191655 3523.18079574 1264.04643324 3527.37720272 1258.63391161 3531.48925114 C1255.32303644 3534.00476593 1252.04653704 3536.56269674 1248.77160692 3539.12474918 C1202.85473944 3575.02402377 1155.10204592 3608.68297083 1106.07922411 3640.20018864 C1105.19041552 3640.77253239 1104.30160692 3641.34487614 1103.38586473 3641.93456364 C1026.97074066 3691.07042908 946.84603303 3735.77728569 864.05279589 3773.30358219 C861.92920172 3774.26834478 859.80798277 3775.23819471 857.68713427 3776.2089777 C808.66939902 3798.63577313 758.81435095 3818.98580019 708.07922411 3837.20018864 C707.05731981 3837.56934391 706.03541552 3837.93849918 704.98254442 3838.31884098 C673.87970715 3849.50593497 642.53119724 3859.95187247 610.89172411 3869.51268864 C609.72183947 3869.86649601 608.55195482 3870.22030338 607.34661913 3870.58483219 C593.96881008 3874.6213235 580.5667624 3878.54626721 567.07922411 3882.20018864 C565.91366991 3882.51641178 564.74811571 3882.83263493 563.54724169 3883.15844059 C560.39237796 3884.01002135 557.23612707 3884.85620233 554.07922411 3885.70018864 C547.40172713 3887.48940918 540.72780007 3889.28600583 534.07482958 3891.16454411 C513.78560005 3896.88738688 493.27420471 3901.53936894 472.67472887 3905.98125553 C468.03788606 3906.98425861 463.41387387 3908.03453947 458.79382372 3909.11180973 C435.23195854 3914.5976657 411.45477679 3919.11397559 387.59216356 3923.07103825 C386.24665869 3923.29480223 384.9011997 3923.51884223 383.55578661 3923.74315739 C382.54405634 3923.91172749 382.54405634 3923.91172749 381.51188707 3924.08370304 C376.90994629 3924.86153098 372.32917466 3925.72473604 367.74905443 3926.62163639 C354.66391857 3929.17995166 341.52023522 3931.20847676 328.32922411 3933.13768864 C327.15159502 3933.31071507 325.97396593 3933.48374149 324.76065111 3933.66201115 C273.50712503 3941.17495091 222.04091589 3946.33097053 170.36438036 3949.90038395 C166.49715421 3950.16828382 162.63197538 3950.45976186 158.76672411 3950.75487614 C150.87603957 3951.33817222 142.98090595 3951.7984784 135.07922411 3952.20018864 C134.20129198 3952.24508427 133.32335985 3952.2899799 132.41882372 3952.336236 C62.51803661 3955.84335325 -7.79350943 3955.70637653 -77.64965773 3951.39940739 C-80.73604258 3951.21143933 -83.82278629 3951.03349769 -86.9100337 3950.86034489 C-166.382042 3946.38402083 -247.1415127 3937.74701446 -325.17810011 3921.75927067 C-328.09344373 3921.16499108 -331.01241963 3920.59028078 -333.93206739 3920.01757145 C-359.00838475 3915.09586879 -383.98692574 3909.79755494 -408.92077589 3904.20018864 C-410.1755171 3903.91933414 -411.43025831 3903.63847965 -412.72302198 3903.34911442 C-434.7014539 3898.41249753 -456.8400464 3893.42935186 -478.393188 3886.84789371 C-482.74750494 3885.52100806 -487.12022537 3884.38910886 -491.54577589 3883.32518864 C-499.22325994 3881.47483197 -506.74351697 3879.17133179 -514.28601027 3876.83739567 C-520.18087797 3875.01783614 -526.08837201 3873.30191501 -532.04577589 3871.70018864 C-539.42122464 3869.70518339 -546.6546112 3867.36721591 -553.8763423 3864.87401676 C-558.37597461 3863.3327363 -562.88999687 3861.90468306 -567.46166945 3860.59040165 C-579.59252768 3857.10097016 -591.53445431 3853.07629531 -603.48327589 3849.01268864 C-604.63062208 3848.62301914 -605.77796827 3848.23334965 -606.96008253 3847.83187199 C-669.38665695 3826.58378667 -730.70050225 3801.78979348 -790.48327589 3773.95018864 C-791.67380568 3773.39645573 -792.86433546 3772.84272282 -794.09094191 3772.27221012 C-804.97946472 3767.19939167 -815.81300736 3762.01450386 -826.62829542 3756.78759098 C-829.54332307 3755.38216982 -832.46130921 3753.98311396 -835.38091993 3752.58724308 C-854.15606581 3743.60995923 -872.59358364 3734.18319815 -890.79626417 3724.0917902 C-895.43443835 3721.53047826 -900.09492536 3719.08242908 -904.85827589 3716.76268864 C-912.64042939 3712.94019726 -920.10103334 3708.58256449 -927.60827589 3704.25096989 C-932.43237742 3701.46978111 -937.29350812 3698.76171517 -942.17077589 3696.07518864 C-950.85095499 3691.27612858 -959.4018596 3686.2790338 -967.92077589 3681.20018864 C-968.84245558 3680.65233707 -969.76413527 3680.10448551 -970.71374464 3679.54003239 C-1009.86162737 3656.25599756 -1048.30790387 3631.70116907 -1085.72692823 3605.72264957 C-1088.27511097 3603.95429129 -1090.82661553 3602.19076557 -1093.37780714 3600.42675114 C-1111.31257575 3588.00818741 -1128.94813015 3575.25235657 -1146.36657667 3562.12059879 C-1148.94046068 3560.18538835 -1151.52125676 3558.25977797 -1154.10436964 3556.33690739 C-1163.60519449 3549.25810859 -1172.96598032 3542.04998104 -1182.17810011 3534.60009098 C-1185.04979551 3532.29324012 -1187.95526881 3530.0299081 -1190.85827589 3527.76268864 C-1198.01780174 3522.15922746 -1205.07142449 3516.42835598 -1212.11218214 3510.67675114 C-1213.71313069 3509.36971323 -1215.31675565 3508.06595508 -1216.92077589 3506.76268864 C-1222.36135199 3502.33431274 -1227.73533585 3497.83433199 -1233.07897902 3493.29003239 C-1236.55357858 3490.34013454 -1240.06553283 3487.44336144 -1243.60827589 3484.57518864 C-1248.00879164 3480.99618741 -1252.2191011 3477.25226564 -1256.40905714 3473.43065739 C-1258.91536333 3471.20499512 -1261.49001982 3469.10497303 -1264.10827589 3467.01268864 C-1270.17828579 3462.10667211 -1275.81055065 3456.77015351 -1281.48718214 3451.41893864 C-1284.5438297 3448.5405476 -1287.66960747 3445.76071901 -1290.85046339 3443.02050114 C-1294.81595034 3439.53386544 -1298.66574247 3435.91856977 -1302.53796339 3432.32909489 C-1304.74299145 3430.28573508 -1306.95588972 3428.25165561 -1309.17858839 3426.22753239 C-1313.95492614 3421.8773363 -1318.67700573 3417.50752435 -1323.19862318 3412.88990116 C-1324.8109032 3411.30799166 -1326.47272968 3409.86283858 -1328.20178175 3408.410882 C-1335.01522919 3402.47796073 -1341.29513695 3395.96930022 -1347.67468214 3389.57909489 C-1349.10364916 3388.15080271 -1350.5327645 3386.72265891 -1351.9620204 3385.2946558 C-1354.94656276 3382.31158188 -1357.92930413 3379.32672202 -1360.91076612 3376.3405695 C-1364.71557664 3372.53006224 -1368.52485968 3368.72406278 -1372.33551073 3364.91939735 C-1375.28428178 3361.97425501 -1378.23064822 3359.02671631 -1381.17631292 3356.07846737 C-1382.57928147 3354.67483594 -1383.98298159 3353.27193531 -1385.3874526 3351.86980724 C-1398.63356029 3338.64095526 -1398.63356029 3338.64095526 -1403.68992567 3332.65122318 C-1405.32721475 3330.72104274 -1407.10084151 3328.95736666 -1408.92077589 3327.20018864 C-1411.48638427 3324.72304951 -1413.86561622 3322.14139618 -1416.20202589 3319.45018864 C-1419.83716126 3315.26474493 -1423.60883934 3311.22433609 -1427.42077589 3307.20018864 C-1431.8294096 3302.54612584 -1436.1508843 3297.84101249 -1440.35339308 3292.99950504 C-1442.30046543 3290.76431451 -1444.29572058 3288.5754886 -1446.29577589 3286.38768864 C-1449.42500416 3282.92488781 -1452.42577938 3279.3933986 -1455.35827589 3275.76268864 C-1458.43414177 3271.95931361 -1461.60830755 3268.29936212 -1464.92077589 3264.70018864 C-1468.98061234 3260.28378719 -1472.8140141 3255.73855342 -1476.58093214 3251.07128239 C-1479.10810913 3247.97032231 -1481.69692709 3244.9284377 -1484.29577589 3241.88768864 C-1488.59973297 3236.83897488 -1492.72360264 3231.67230136 -1496.79309034 3226.43358707 C-1499.92801551 3222.41562362 -1503.16657833 3218.50648824 -1506.48327589 3214.63768864 C-1510.90131962 3209.47282395 -1515.09778665 3204.16740213 -1519.20983839 3198.75487614 C-1521.72535318 3195.44400097 -1524.28328399 3192.16750157 -1526.84533644 3188.89257145 C-1539.86333361 3172.24193832 -1552.44433735 3155.25906764 -1564.92077589 3138.20018864 C-1565.45380323 3137.47154606 -1565.98683058 3136.74290348 -1566.53601027 3135.99218082 C-1602.55110661 3086.66523153 -1635.87549036 3035.26199372 -1666.88122511 2982.65819645 C-1668.54655232 2979.83302796 -1670.21805804 2977.01160158 -1671.89343214 2974.19237614 C-1677.05959074 2965.48396895 -1682.06188205 2956.68769829 -1687.02453566 2947.86180973 C-1690.08406908 2942.42554946 -1693.18427001 2937.0174487 -1696.34118605 2931.63720036 C-1700.83290424 2923.97559896 -1705.00589497 2916.24249333 -1708.90905714 2908.26659489 C-1711.07828574 2903.84516173 -1713.36765493 2899.49053757 -1715.67077589 2895.13768864 C-1716.08738478 2894.34902409 -1716.50399366 2893.56035954 -1716.93322706 2892.74779606 C-1717.80616436 2891.09543279 -1718.67929757 2889.44317301 -1719.55261183 2887.79100895 C-1732.43944165 2863.38789723 -1744.7679795 2838.80279054 -1756.2928462 2813.72509098 C-1757.87012265 2810.30986641 -1759.46584304 2806.90401107 -1761.06921339 2803.50096989 C-1783.72731361 2755.33319206 -1803.5552498 2705.91610849 -1821.90380812 2655.96465397 C-1822.86894515 2653.34108226 -1823.83875352 2650.71929563 -1824.81042433 2648.09813786 C-1839.52619307 2608.35952804 -1852.13589698 2567.89559818 -1863.92077589 2527.20018864 C-1864.23192335 2526.12591618 -1864.54307081 2525.05164371 -1864.86364698 2523.94481754 C-1866.34202312 2518.82527147 -1867.80043942 2513.70039841 -1869.24694777 2508.57177067 C-1869.96701217 2506.03745703 -1870.70044213 2503.50727418 -1871.43640089 2500.97753239 C-1874.30873532 2491.08302936 -1877.00458363 2481.16907801 -1879.45202589 2471.16112614 C-1880.58931141 2466.51287773 -1881.76604195 2461.87525807 -1882.95202589 2457.23925114 C-1888.079437 2437.13923498 -1892.70390411 2416.97214037 -1896.97546339 2396.67382145 C-1897.89016687 2392.33297939 -1898.8254699 2387.99675424 -1899.76452589 2383.66112614 C-1909.15849896 2340.19409821 -1916.16373792 2296.38282529 -1922.599792 2252.39055729 C-1922.8950349 2250.37584311 -1923.19270184 2248.36148456 -1923.49060011 2246.34716129 C-1929.79580301 2203.50138343 -1933.54810352 2160.36029092 -1936.92077589 2117.20018864 C-1936.98716261 2116.35557072 -1937.05354933 2115.5109528 -1937.12194777 2114.64074039 C-1937.82916424 2105.58632948 -1938.38164745 2096.53026593 -1938.8107295 2087.45824528 C-1938.92964124 2085.01827935 -1939.05932986 2082.57901505 -1939.18981886 2080.13964176 C-1944.00215627 1988.3902714 -1942.72686461 1895.41851769 -1934.17468214 1803.92595768 C-1933.92308045 1801.22492885 -1933.67699836 1798.52345049 -1933.43249464 1795.82177067 C-1932.35307857 1783.93813277 -1931.17673292 1772.06642913 -1929.92077589 1760.20018864 C-1929.7892613 1758.95184238 -1929.7892613 1758.95184238 -1929.65508986 1757.67827702 C-1925.51424913 1718.52276626 -1919.78317536 1679.57224119 -1913.54577589 1640.70018864 C-1913.42453352 1639.93869511 -1913.30329115 1639.17720158 -1913.17837477 1638.39263248 C-1912.8397146 1636.27554791 -1912.49483012 1634.15958944 -1912.14733839 1632.04393864 C-1911.9573628 1630.88055973 -1911.76738722 1629.71718082 -1911.5716548 1628.51854801 C-1910.88280262 1625.0065905 -1909.91964788 1621.63532768 -1908.92077589 1618.20018864 C-1908.61477761 1616.71148147 -1908.33644148 1615.21659326 -1908.09655714 1613.71581364 C-1907.95886915 1612.88170963 -1907.82118116 1612.04760563 -1907.67932081 1611.18822575 C-1907.53212599 1610.2846735 -1907.38493116 1609.38112125 -1907.23327589 1608.45018864 C-1903.19516773 1584.58828385 -1898.22908668 1560.92591555 -1892.61608839 1537.38768864 C-1890.89981248 1530.17736836 -1889.31233553 1522.9415633 -1887.73327589 1515.70018864 C-1886.03194164 1507.93923206 -1884.21103564 1500.3027116 -1881.91296339 1492.69628239 C-1880.61622403 1488.12706299 -1879.55570735 1483.51386357 -1878.48327589 1478.88768864 C-1876.80499288 1471.6805277 -1874.93652957 1464.57946972 -1872.7916255 1457.4980402 C-1871.25487527 1452.40617499 -1869.87259005 1447.28796401 -1868.54577589 1442.13768864 C-1863.04806916 1420.95458165 -1856.47895755 1400.07379321 -1849.92077589 1379.20018864 C-1849.44003614 1377.66104801 -1849.44003614 1377.66104801 -1848.94958448 1376.09081364 C-1830.35506022 1316.61980214 -1807.86858844 1258.68963238 -1783.92077589 1201.20018864 C-1783.45296705 1200.07674046 -1783.45296705 1200.07674046 -1782.97570753 1198.93059635 C-1781.21511156 1194.70469844 -1779.44648938 1190.48226325 -1777.67077589 1186.26268864 C-1777.27825636 1185.3260236 -1776.88573683 1184.38935856 -1776.48132277 1183.42430973 C-1773.16305763 1175.58825222 -1769.54813367 1167.89615722 -1765.92077589 1160.20018864 C-1765.27819442 1158.83283504 -1764.63578108 1157.46540243 -1763.9935298 1156.09789371 C-1729.47698719 1082.64552271 -1729.47698719 1082.64552271 -1712.74890089 1052.35643864 C-1710.0866543 1047.52909028 -1707.52582584 1042.65383036 -1704.98327589 1037.76268864 C-1699.75676322 1027.74924695 -1694.17918395 1017.94241671 -1688.58532667 1008.1308527 C-1686.95564079 1005.26157294 -1685.34001073 1002.38488296 -1683.72936964 999.50487614 C-1676.25323983 986.15325005 -1668.48001319 973.00108343 -1660.55700636 959.91014957 C-1659.16073333 957.59761144 -1657.77313169 955.28044797 -1656.39343214 952.95800114 C-1650.93572796 943.77196894 -1645.25512274 934.73520599 -1639.51989698 925.72020817 C-1637.94447727 923.23753912 -1636.37883493 920.74895412 -1634.81530714 918.25878239 C-1616.82263162 889.68346493 -1597.86727145 861.66170158 -1578.30114698 834.14208317 C-1577.01192473 832.32841606 -1575.72583189 830.51257108 -1574.44030714 828.69628239 C-1564.15882901 814.20046594 -1553.54817014 799.95146133 -1542.74914503 785.83788395 C-1539.20018009 781.19895053 -1535.67636007 776.54418923 -1532.19445753 771.85472965 C-1526.67707471 764.42723535 -1520.93518112 757.21798701 -1515.06921339 750.06346989 C-1512.15469376 746.50314941 -1509.31005794 742.89281165 -1506.48327589 739.26268864 C-1497.0467104 727.17604557 -1487.17939146 715.43339223 -1477.24304152 703.75634098 C-1475.44162419 701.636283 -1473.64746436 699.51013353 -1471.8529048 697.38427067 C-1469.5460097 694.65300556 -1467.23411236 691.92599886 -1464.92077589 689.20018864 C-1464.42932081 688.62091618 -1463.93786573 688.04164371 -1463.43151808 687.44481754 C-1457.44882915 680.40217312 -1451.3933527 673.45272478 -1445.14733839 666.64159489 C-1443.22944382 664.53864031 -1441.34701544 662.41349708 -1439.48327589 660.26268864 C-1436.09334225 656.36227087 -1432.60106739 652.55841542 -1429.10192823 648.75634098 C-1426.2476826 645.65347783 -1423.41740356 642.53160992 -1420.60827589 639.38768864 C-1415.75787241 633.98688476 -1410.80834671 628.68138416 -1405.84143019 623.38793278 C-1403.45048933 620.83790318 -1401.0679868 618.28067788 -1398.69641066 615.71263981 C-1386.53949969 602.60638753 -1373.87733335 590.0033306 -1361.22741652 577.37645817 C-1358.03256981 574.18736351 -1354.84231203 570.99372149 -1351.65331221 567.79878139 C-1349.16369847 565.30553968 -1346.67169049 562.81470196 -1344.17896986 560.32456684 C-1343.0014178 559.14767498 -1341.82458892 557.97005902 -1340.64854383 556.79166126 C-1335.06847 551.20285278 -1329.49942083 545.64788018 -1323.47351027 540.53273869 C-1321.33820926 538.70023243 -1319.37917774 536.718849 -1317.42077589 534.70018864 C-1314.11438511 531.29206276 -1310.62699851 528.17831027 -1307.04382277 525.06932926 C-1303.59113758 522.02956871 -1300.2600663 518.86338365 -1296.92077589 515.70018864 C-1292.27723152 511.30151868 -1287.58186693 506.99179697 -1282.7513423 502.79882145 C-1280.32993207 500.68420499 -1277.96957138 498.50654093 -1275.60827589 496.32518864 C-1271.09173752 492.20112187 -1266.42944573 488.32081999 -1261.67077589 484.48143864 C-1258.83978011 482.13299895 -1256.12693991 479.69108961 -1253.42077589 477.20018864 C-1249.02699041 473.16064046 -1244.50238765 469.35339245 -1239.85827589 465.60643864 C-1236.55724148 462.90239981 -1233.33315404 460.11904299 -1230.10827589 457.32518864 C-1224.86472213 452.79434394 -1219.50361553 448.45467566 -1214.03088331 444.20458317 C-1210.26438556 441.27432284 -1206.57398707 438.2719869 -1202.92077589 435.20018864 C-1197.01026696 430.24097534 -1190.97151846 425.46700347 -1184.88366652 420.72899723 C-1182.78410366 419.09374069 -1180.68828729 417.4537547 -1178.59265089 415.81346989 C-1169.37190043 408.60664145 -1160.07588886 401.51208437 -1150.69030714 394.5214777 C-1148.13397024 392.61268971 -1145.5913213 390.68583421 -1143.04577589 388.76268864 C-1135.86173759 383.37465991 -1128.56561196 378.14255831 -1121.27624464 372.89843082 C-1118.95600578 371.22558862 -1116.64072097 369.54612948 -1114.32702589 367.86425114 C-1113.56728468 367.31285465 -1112.80754347 366.76145817 -1112.0247798 366.1933527 C-1110.61973342 365.17334751 -1109.21562876 364.15204266 -1107.81286573 363.12889957 C-1094.19258554 353.25608495 -1080.160678 343.94175949 -1066.22106886 334.52953434 C-1064.35337598 333.26774252 -1062.48651393 332.00472005 -1060.62048292 330.74047184 C-1049.18798841 322.99507188 -1037.67681744 315.44443827 -1025.92077589 308.20018864 C-1024.28182409 307.16726504 -1022.64472476 306.1313878 -1021.01061964 305.09081364 C-1008.74918349 297.29134962 -996.35839554 289.71494624 -983.92077589 282.20018864 C-982.64267042 281.42675114 -982.64267042 281.42675114 -981.33874464 280.63768864 C-919.6003203 243.30295644 -855.60254101 208.74947914 -789.80853224 179.05388737 C-787.78497658 178.13877621 -785.76361116 177.21894695 -783.74255323 176.29833317 C-746.4795457 159.33607492 -708.72714612 143.6757012 -670.518188 128.97411442 C-667.37222521 127.76267783 -664.230236 126.54159526 -661.09094191 125.31298161 C-653.42917717 122.31473584 -645.77541911 119.34645527 -637.98327589 116.70018864 C-636.05987677 116.03937623 -634.13672351 115.377848 -632.21374464 114.71581364 C-631.10950148 114.33618473 -630.00525831 113.95655582 -628.86755323 113.56542301 C-624.02118154 111.89324512 -619.18438277 110.19376984 -614.34655714 108.49706364 C-611.46051572 107.4859732 -608.57441964 106.47503888 -605.6883235 105.46410465 C-603.78061678 104.79540195 -601.87316052 104.12598426 -599.96597242 103.45580387 C-590.82968916 100.24642267 -581.70742275 97.04420533 -572.43054152 94.26024723 C-567.84860173 92.87635863 -563.2861661 91.43300218 -558.72155714 89.99315739 C-540.44459499 84.24554576 -522.20404179 78.52981745 -503.65515089 73.71581364 C-497.51483197 72.11857213 -491.43928218 70.32061987 -485.35827589 68.51268864 C-476.5807745 65.91457662 -467.78825641 63.64910634 -458.85925245 61.64305973 C-451.22335697 59.89853651 -443.63061489 57.93776128 -436.06921339 55.89550114 C-382.24963395 41.42599125 -326.71605351 31.00823274 -271.58215284 23.05590153 C-264.29808061 22.00342118 -257.02916328 20.90671654 -249.77185011 19.68041325 C-233.28154867 16.90284663 -216.67565778 15.05359774 -200.06675673 13.14742374 C-195.36724924 12.60670472 -190.67037833 12.04957462 -185.97570753 11.46825504 C-170.79217583 9.59306354 -155.59865013 8.03479506 -140.35827589 6.70018864 C-139.15275068 6.5938007 -137.94722548 6.48741276 -136.7051692 6.37780094 C-109.14677185 3.96664649 -81.55395036 2.43822791 -53.92077589 1.20018864 C-52.93596015 1.15500347 -51.95114441 1.10981831 -50.93648577 1.06326389 C-33.95459092 0.29490945 -16.99827715 0.02343146 0 0 Z " fill="#020202" transform="translate(2436.9207758903503,562.7998113632202)"/>
<path d="M0 0 C3.67384333 2.13508866 6.67132373 4.79200116 9.8203125 7.62890625 C11.16301363 8.81629129 12.50676964 10.00248451 13.8515625 11.1875 C14.50769531 11.76741699 15.16382812 12.34733398 15.83984375 12.94482422 C19.13822522 15.82743603 22.54990572 18.56730818 25.953125 21.32421875 C29.06531613 23.86894483 32.13250992 26.46266541 35.1953125 29.06640625 C40.97061006 33.97201194 46.81523747 38.78669614 52.6953125 43.56640625 C59.14063968 48.80559033 65.52954162 54.101802 71.85888672 59.47998047 C75.27551982 62.37860464 78.72018247 65.23781204 82.1953125 68.06640625 C86.7998483 71.81428423 91.33550441 75.63624069 95.859375 79.48046875 C99.2759079 82.37885448 102.72036088 85.23795725 106.1953125 88.06640625 C110.23514702 91.35464365 114.22614527 94.69372086 118.1953125 98.06640625 C123.97073794 102.97186469 129.81523349 107.7866929 135.6953125 112.56640625 C142.14063968 117.80559033 148.52954162 123.101802 154.85888672 128.47998047 C158.27551982 131.37860464 161.72018247 134.23781204 165.1953125 137.06640625 C169.7998483 140.81428423 174.33550441 144.63624069 178.859375 148.48046875 C182.2759079 151.37885448 185.72036088 154.23795725 189.1953125 157.06640625 C193.23514793 160.35464439 197.22611677 163.69375386 201.1953125 167.06640625 C205.9644246 171.11653224 210.77443682 175.10992738 215.625 179.0625 C225.20393139 186.87432573 234.74761202 194.72613462 244.16357422 202.73388672 C248.35859432 206.29669029 252.61445528 209.779662 256.8828125 213.25390625 C260.01331162 215.82787219 263.1069466 218.44220091 266.1953125 221.06640625 C270.9644246 225.11653224 275.77443682 229.10992738 280.625 233.0625 C290.20393139 240.87432573 299.74761202 248.72613462 309.16357422 256.73388672 C313.35859432 260.29669029 317.61445528 263.779662 321.8828125 267.25390625 C325.57545614 270.29007991 329.21653038 273.38490595 332.859375 276.48046875 C336.2759079 279.37885448 339.72036088 282.23795725 343.1953125 285.06640625 C347.23514702 288.35464365 351.22614527 291.69372086 355.1953125 295.06640625 C360.97073794 299.97186469 366.81523349 304.7866929 372.6953125 309.56640625 C379.14063968 314.80559033 385.52954162 320.101802 391.85888672 325.47998047 C395.27551982 328.37860464 398.72018247 331.23781204 402.1953125 334.06640625 C406.7998483 337.81428423 411.33550441 341.63624069 415.859375 345.48046875 C420.15544294 349.12500032 424.50899591 352.69427965 428.87890625 356.25 C433.0501516 359.68071913 437.15552008 363.18715577 441.26171875 366.6953125 C444.10328247 369.09785755 447.00196175 371.42420708 449.90991211 373.74584961 C450.80705429 374.46244247 451.70419647 375.17903534 452.62852478 375.91734314 C453.31056473 376.46153397 453.99260468 377.00572479 454.6953125 377.56640625 C454.69770085 376.28480275 454.70008921 375.00319925 454.70254993 373.68275928 C454.75997766 343.22262001 454.83275626 312.76256008 454.92429878 282.30250569 C454.93556621 278.54892014 454.94670478 274.79533422 454.95776367 271.04174805 C454.95996736 270.29451377 454.96217104 269.5472795 454.9644415 268.77740177 C454.9997611 256.69702369 455.02465531 244.61664567 455.04565952 232.53623519 C455.06746419 220.12972512 455.10055868 207.72328173 455.14401406 195.31682843 C455.17045063 187.66866064 455.18820477 180.02057585 455.19465854 172.37236466 C455.20056327 166.49603891 455.22221737 160.61983542 455.24958801 154.74356842 C455.25834986 152.34149421 455.26209468 149.93939537 455.26032066 147.53730583 C455.24984916 126.80785148 456.51485034 110.54482639 471.4765625 94.78515625 C483.57277211 82.68894664 496.8967165 78.26978346 513.97708797 78.16051394 C515.40342764 78.16630659 516.82976617 78.17238749 518.25610352 78.1787262 C519.80058713 78.17454565 521.34506766 78.16906419 522.88954258 78.16240638 C527.10351371 78.14802794 531.31728799 78.15217251 535.53126955 78.1595732 C540.08758633 78.16432142 544.64386153 78.15178054 549.20016479 78.14155579 C558.11407055 78.12439563 567.02790574 78.12352187 575.94182372 78.12876869 C583.18877231 78.13281629 590.4357001 78.13135984 597.68264771 78.12602043 C598.71554226 78.12527201 599.74843681 78.12452359 600.81263119 78.12375249 C602.91118201 78.12222096 605.00973283 78.12068261 607.10828364 78.11913752 C626.76910483 78.10542292 646.42988619 78.11084319 666.09070647 78.12232273 C684.06528645 78.13225725 702.03976353 78.1193088 720.01432765 78.09538854 C738.48821892 78.07098968 756.96206229 78.06139141 775.43596935 78.06804127 C785.80069663 78.07153131 796.16534475 78.06931536 806.53005981 78.05179024 C815.35173781 78.03705858 824.17328088 78.03644562 832.99495625 78.05386115 C837.49270262 78.06236493 841.99020804 78.06453583 846.48794174 78.04920959 C850.61099059 78.03533435 854.73359271 78.04016179 858.8566159 78.05944883 C860.3423277 78.06320042 861.82807554 78.06031124 863.31375515 78.04983718 C879.2901308 77.9452765 893.95267755 82.54045618 905.8515625 93.5859375 C917.04704221 105.6115905 922.20889801 119.61296425 922.04096699 135.91276455 C922.04192254 137.00579758 922.0428781 138.09883062 922.04386261 139.22498587 C922.0434437 142.8772501 922.02156829 146.52906431 921.99983215 150.18125916 C921.99524425 152.83033021 921.99187803 155.47937681 921.99004096 158.12844855 C921.98369408 163.88274821 921.96640247 169.63693219 921.94188881 175.39118195 C921.90557838 183.94809756 921.88689507 192.50498789 921.87239008 201.06196515 C921.84927831 214.57847468 921.81646208 228.09493749 921.77739439 241.61140951 C921.71571668 263.06661596 921.68748544 284.52177271 921.67077397 305.97705676 C921.66717373 310.54573456 921.66326534 315.1144121 921.65938503 319.68308967 C921.6578278 321.52471834 921.65627181 323.36634701 921.65471705 325.20797567 C921.6539446 326.12235121 921.65317215 327.03672674 921.65237629 327.97881062 C921.65003858 330.75949087 921.64773289 333.54017115 921.64543069 336.32085143 C921.62800751 357.22359043 921.60603654 378.1263229 921.57983398 399.02905273 C921.57864954 399.98406089 921.5774651 400.93906904 921.57624476 401.92301683 C921.53754152 432.90389873 921.46098687 463.88456747 921.36803199 494.86532912 C921.27269174 526.72891801 921.2239134 558.59227755 921.23051477 590.45601492 C921.23140633 594.95579486 921.23172236 599.45557466 921.23166466 603.95535469 C921.23166438 604.84091672 921.23166411 605.72647875 921.23166383 606.63887599 C921.2302044 620.88771554 921.17896185 635.13596216 921.10850498 649.38460975 C921.03863686 663.70325423 921.01906445 678.02125495 921.0510026 692.34004086 C921.06839762 700.84562775 921.04669167 709.34902404 920.96889844 717.85428406 C920.92074758 723.53872177 920.92358529 729.22167359 920.96745916 734.90614168 C920.99099481 738.14426273 920.98493936 741.37738219 920.93202946 744.61527704 C920.18809837 758.51306754 920.18809837 758.51306754 925.73018777 770.65300477 C928.57160554 773.33278258 931.6182799 775.48216753 934.96164878 777.48816497 C937.59504883 779.12599162 939.90045649 781.12216004 942.2578125 783.12890625 C943.58039062 784.20205078 943.58039062 784.20205078 944.9296875 785.296875 C947.98898986 787.8074042 950.99844182 790.37153067 954.0078125 792.94140625 C958.44377913 796.72438595 962.96132203 800.37173601 967.5703125 803.94140625 C973.31558405 808.39692296 978.82626691 813.0778403 984.29589844 817.86621094 C988.77291635 821.78272582 993.33074187 825.57967692 997.953125 829.32421875 C1001.06531398 831.86894308 1004.13257747 834.4625885 1007.1953125 837.06640625 C1012.04340716 841.18636232 1016.94377416 845.2343685 1021.87890625 849.25 C1025.03316442 851.84427891 1028.1473423 854.4824689 1031.2578125 857.12890625 C1035.02620189 860.33379816 1038.81777278 863.49328319 1042.6953125 866.56640625 C1047.14784951 870.09524028 1051.48217229 873.74869954 1055.80859375 877.4296875 C1059.24102859 880.34645138 1062.70124065 883.22334051 1066.1953125 886.06640625 C1070.7998483 889.81428423 1075.33550441 893.63624069 1079.859375 897.48046875 C1083.2759079 900.37885448 1086.72036088 903.23795725 1090.1953125 906.06640625 C1094.23514702 909.35464365 1098.22614527 912.69372086 1102.1953125 916.06640625 C1107.97073794 920.97186469 1113.81523349 925.7866929 1119.6953125 930.56640625 C1126.14063968 935.80559033 1132.52954162 941.101802 1138.85888672 946.47998047 C1142.27551982 949.37860464 1145.72018247 952.23781204 1149.1953125 955.06640625 C1153.7998483 958.81428423 1158.33550441 962.63624069 1162.859375 966.48046875 C1166.2759079 969.37885448 1169.72036088 972.23795725 1173.1953125 975.06640625 C1177.7998483 978.81428423 1182.33550441 982.63624069 1186.859375 986.48046875 C1191.15544294 990.12500032 1195.50899591 993.69427965 1199.87890625 997.25 C1203.03316442 999.84427891 1206.1473423 1002.4824689 1209.2578125 1005.12890625 C1213.02620189 1008.33379816 1216.81777278 1011.49328319 1220.6953125 1014.56640625 C1225.14784951 1018.09524028 1229.48217229 1021.74869954 1233.80859375 1025.4296875 C1237.24102859 1028.34645138 1240.70124065 1031.22334051 1244.1953125 1034.06640625 C1248.7998483 1037.81428423 1253.33550441 1041.63624069 1257.859375 1045.48046875 C1261.2759079 1048.37885448 1264.72036088 1051.23795725 1268.1953125 1054.06640625 C1272.23514702 1057.35464365 1276.22614527 1060.69372086 1280.1953125 1064.06640625 C1285.97073794 1068.97186469 1291.81523349 1073.7866929 1297.6953125 1078.56640625 C1304.14063968 1083.80559033 1310.52954162 1089.101802 1316.85888672 1094.47998047 C1320.27551982 1097.37860464 1323.72018247 1100.23781204 1327.1953125 1103.06640625 C1331.7998483 1106.81428423 1336.33550441 1110.63624069 1340.859375 1114.48046875 C1345.15544294 1118.12500032 1349.50899591 1121.69427965 1353.87890625 1125.25 C1357.03316442 1127.84427891 1360.1473423 1130.4824689 1363.2578125 1133.12890625 C1367.02620189 1136.33379816 1370.81777278 1139.49328319 1374.6953125 1142.56640625 C1379.14784951 1146.09524028 1383.48217229 1149.74869954 1387.80859375 1153.4296875 C1391.24102859 1156.34645138 1394.70124065 1159.22334051 1398.1953125 1162.06640625 C1402.7998483 1165.81428423 1407.33550441 1169.63624069 1411.859375 1173.48046875 C1415.2759079 1176.37885448 1418.72036088 1179.23795725 1422.1953125 1182.06640625 C1426.7998483 1185.81428423 1431.33550441 1189.63624069 1435.859375 1193.48046875 C1440.15544294 1197.12500032 1444.50899591 1200.69427965 1448.87890625 1204.25 C1452.03316442 1206.84427891 1455.1473423 1209.4824689 1458.2578125 1212.12890625 C1462.02620189 1215.33379816 1465.81777278 1218.49328319 1469.6953125 1221.56640625 C1474.14784951 1225.09524028 1478.48217229 1228.74869954 1482.80859375 1232.4296875 C1486.24102859 1235.34645138 1489.70124065 1238.22334051 1493.1953125 1241.06640625 C1497.23514702 1244.35464365 1501.22614527 1247.69372086 1505.1953125 1251.06640625 C1510.97075552 1255.97187962 1516.81601089 1260.78571866 1522.6953125 1265.56640625 C1532.58988207 1273.63340741 1532.58988207 1273.63340741 1536.984375 1277.3203125 C1537.53037354 1277.77801025 1538.07637207 1278.23570801 1538.63891602 1278.70727539 C1540.18138547 1280.00224258 1541.7216115 1281.29988057 1543.26171875 1282.59765625 C1545.51842286 1284.56748717 1545.51842286 1284.56748717 1547.6953125 1285.56640625 C1547.6953125 1286.22640625 1547.6953125 1286.88640625 1547.6953125 1287.56640625 C1395.5653125 1287.56640625 1243.4353125 1287.56640625 1086.6953125 1287.56640625 C1086.71887817 1341.06713257 1086.71887817 1341.06713257 1086.74291992 1395.64868164 C1086.76238039 1441.76797257 1086.76238039 1441.76797257 1086.7705575 1462.72330441 C1086.77142129 1464.9362229 1086.7722852 1467.1491414 1086.77315123 1469.36205989 C1086.79337712 1521.04935067 1086.80949141 1572.73664181 1086.82234192 1624.42393494 C1086.82276027 1626.10213639 1086.82317863 1627.78033785 1086.82359698 1629.45853931 C1086.83236515 1664.68489808 1086.84051529 1699.91125697 1086.84795153 1735.13761605 C1086.8516877 1752.83314208 1086.85554262 1770.52866809 1086.85950982 1788.22419408 C1086.86010757 1790.89348731 1086.86070193 1793.56278053 1086.86129614 1796.23207376 C1086.87047543 1837.33247255 1086.88220061 1878.43286867 1086.90130615 1919.53326416 C1086.90171685 1920.4168715 1086.90212755 1921.30047884 1086.90255069 1922.21086217 C1086.90918775 1936.45710991 1086.9160386 1950.70335756 1086.92291782 1964.94960519 C1086.94273032 2005.98623882 1086.96096042 2047.02287039 1086.96873188 2088.05950832 C1086.96889249 2088.90350701 1086.96905309 2089.74750569 1086.96921856 2090.61708009 C1086.97271596 2109.14550834 1086.97540048 2127.67393662 1086.97731545 2146.2023651 C1086.97810031 2153.65773659 1086.97900217 2161.11310807 1086.97994423 2168.56847954 C1086.98004451 2169.3844342 1086.98014479 2170.20038887 1086.98024811 2171.04106944 C1086.98353665 2197.32525727 1086.99634717 2223.60942986 1087.01415913 2249.89361154 C1087.03206025 2276.37375696 1087.04060835 2302.8538876 1087.03618446 2329.33403922 C1087.03557524 2332.99472204 1087.03507308 2336.65540487 1087.03463554 2340.31608772 C1087.0345459 2341.0336753 1087.03445626 2341.75126288 1087.0343639 2342.49059553 C1087.03322269 2353.84555007 1087.04216889 2365.2004733 1087.05534209 2376.55541931 C1087.06809306 2387.72562326 1087.06987095 2398.89578718 1087.06080794 2410.06599853 C1087.05627341 2416.03952593 1087.05649461 2422.01294885 1087.06996205 2427.9864651 C1087.08212869 2433.42431126 1087.08039624 2438.8619717 1087.06773243 2444.2998151 C1087.06559552 2446.25145614 1087.06845355 2448.20311094 1087.07701823 2450.15473435 C1087.12308733 2461.36626141 1086.4436999 2471.66227459 1083.6953125 2482.56640625 C1083.50334038 2483.32881522 1083.31136826 2484.09122419 1083.11357881 2484.87673647 C1075.33191598 2513.23206436 1054.94121511 2536.95525722 1029.6953125 2551.37890625 C1022.92934412 2555.12113114 1016.03298796 2558.10532256 1008.6953125 2560.56640625 C1007.62667969 2560.93507813 1006.55804687 2561.30375 1005.45703125 2561.68359375 C989.20453525 2567.01674812 973.46917391 2566.84781545 956.53141785 2566.80691528 C953.84732303 2566.80778798 951.16323935 2566.80945603 948.47914678 2566.81209362 C942.65487404 2566.81622479 936.83064231 2566.81298154 931.00637436 2566.8048172 C922.34600624 2566.79271113 913.6856638 2566.79214893 905.02528876 2566.79390118 C890.45480594 2566.79652477 875.88434129 2566.78986217 861.31386375 2566.77786636 C846.89189756 2566.76602332 832.46993894 2566.75833265 818.04796791 2566.75616074 C816.70177926 2566.75595452 816.70177926 2566.75595452 815.32839489 2566.75574413 C810.77046225 2566.75506745 806.21252961 2566.75446469 801.65459696 2566.75389038 C769.38943644 2566.74969204 737.12428581 2566.73622426 704.85913086 2566.71728516 C673.51831108 2566.69890989 642.17749401 2566.6847458 610.83666992 2566.67626953 C609.87023153 2566.67600648 608.90379314 2566.67574343 607.90806874 2566.6754724 C598.20250066 2566.67283531 588.49693257 2566.67028369 578.79136446 2566.66779468 C559.02084703 2566.66272256 539.25032979 2566.65708006 519.47981262 2566.65109253 C518.57084057 2566.65081795 517.66186852 2566.65054337 516.72535186 2566.65026047 C456.04866796 2566.63186604 395.37198955 2566.60017645 334.6953125 2566.56640625 C334.69491232 2565.80455205 334.69451213 2565.04269786 334.69409982 2564.25775717 C334.65042028 2481.303653 334.603038 2398.34955126 334.53633118 2315.39546204 C334.53483783 2313.5364285 334.53483783 2313.5364285 334.53331431 2311.63983873 C334.51165521 2284.70458105 334.48933248 2257.76932395 334.46632622 2230.83406739 C334.45504781 2217.6248113 334.44391603 2204.4155551 334.43286133 2191.20629883 C334.43120748 2189.23459084 334.43120748 2189.23459084 334.42952022 2187.22305037 C334.39385877 2144.62576425 334.36787778 2102.02848161 334.34692281 2059.4311855 C334.3253357 2015.65287461 334.29397046 1971.87458133 334.25032137 1928.09628662 C334.24415923 1921.9113318 334.23810873 1915.72637688 334.23212624 1909.54142189 C334.23094535 1908.32414735 334.22976447 1907.10687282 334.22854781 1905.85271117 C334.20983442 1886.26673894 334.20141296 1866.68077518 334.19685126 1847.0947951 C334.19204393 1827.39896231 334.17636767 1807.70316182 334.14964684 1788.00734635 C334.13410518 1776.30918207 334.1268472 1764.61108151 334.13154321 1752.91290747 C334.13386076 1745.09097425 334.12528217 1737.2691011 334.10798839 1729.4471868 C334.09845298 1724.99521122 334.09351765 1720.54336842 334.10191687 1716.09138747 C334.15721863 1683.68817134 332.74658839 1652.87467781 309.12744141 1628 C301.78975661 1620.6548099 293.62211453 1615.14486627 284.3203125 1610.56640625 C283.60302979 1610.20458252 282.88574707 1609.84275879 282.14672852 1609.4699707 C268.53876518 1603.17891951 253.64670901 1603.12692545 238.97341919 1603.1787262 C237.02552989 1603.17454484 235.07764303 1603.16906295 233.12976062 1603.16240638 C227.81906914 1603.14803841 222.50853398 1603.15216927 217.19783425 1603.1595732 C211.45400835 1603.16432408 205.71021534 1603.15177813 199.96640015 1603.14155579 C188.73024546 1603.12440021 177.49414677 1603.12352101 166.25798239 1603.12876869 C157.12140343 1603.13281753 147.98484096 1603.13135837 138.84826279 1603.12602043 C137.54565713 1603.12527201 136.24305148 1603.12452359 134.90097293 1603.12375249 C132.25435663 1603.12222094 129.60774034 1603.12068259 126.96112405 1603.11913752 C109.20419927 1603.10931615 91.44728156 1603.10513724 73.6903553 1603.1127634 C72.99695545 1603.11306058 72.30355559 1603.11335775 71.58914362 1603.11366393 C65.9593172 1603.11611252 60.32949085 1603.11872428 54.69966451 1603.12134806 C32.7445715 1603.1314489 10.789555 1603.12309395 -11.16552734 1603.09985352 C-35.86978438 1603.07374486 -60.57399362 1603.06099204 -85.27826512 1603.06804127 C-98.34490594 1603.07152918 -111.41148396 1603.06932959 -124.47811508 1603.05179024 C-135.60078485 1603.03704477 -146.7233476 1603.03646356 -157.84601532 1603.05386115 C-163.51511943 1603.06235396 -169.18403254 1603.06456267 -174.85312653 1603.04920959 C-180.05324299 1603.03530151 -185.25300592 1603.04020396 -190.45310225 1603.05944883 C-192.32372495 1603.06319042 -194.19437639 1603.06034069 -196.06497334 1603.04983718 C-222.29127752 1602.91316844 -243.88428348 1609.87008833 -263.05078125 1628.19140625 C-281.62957 1647.64681973 -287.46403986 1670.38255719 -287.4433527 1696.49520969 C-287.44580285 1698.01500367 -287.44868752 1699.534797 -287.45196548 1701.05458942 C-287.45971829 1705.23239659 -287.46130653 1709.41018682 -287.4618929 1713.5880003 C-287.46362436 1718.13246051 -287.47111108 1722.67691182 -287.47786945 1727.22136682 C-287.48892147 1735.18640864 -287.49629628 1743.15144729 -287.50126839 1751.11649513 C-287.50867836 1762.96023763 -287.52176244 1774.80396909 -287.53601414 1786.64770509 C-287.55982661 1806.57058983 -287.57902998 1826.49347652 -287.59561348 1846.41636848 C-287.61205007 1866.14470755 -287.63053097 1885.87304296 -287.65174675 1905.60137749 C-287.65372316 1907.44082485 -287.65372316 1907.44082485 -287.6557395 1909.31743277 C-287.66244151 1915.54509192 -287.6691801 1921.77275103 -287.67593276 1928.00041013 C-287.72370554 1972.11965463 -287.76688777 2016.23890256 -287.80737305 2060.3581543 C-287.81718702 2071.05102542 -287.82701713 2081.74389653 -287.83691406 2092.43676758 C-287.83783476 2093.43153525 -287.83783476 2093.43153525 -287.83877406 2094.44639923 C-287.8673334 2125.27947501 -287.89848582 2156.11254801 -287.93030657 2186.94562058 C-287.93237251 2188.94747948 -287.93443733 2190.94933838 -287.93650192 2192.95119728 C-287.95018594 2206.21768967 -287.96391475 2219.48418202 -287.97767327 2232.75067434 C-288.00570039 2259.7764452 -288.03344542 2286.80221635 -288.0610199 2313.82798767 C-288.0629222 2315.6919208 -288.0629222 2315.6919208 -288.06486292 2317.59350915 C-288.14952975 2400.58447024 -288.22762065 2483.57543779 -288.3046875 2566.56640625 C-350.73996435 2566.63499458 -413.17524557 2566.69858834 -475.61054993 2566.73577881 C-476.53525803 2566.73633104 -477.45996614 2566.73688327 -478.4126957 2566.73745223 C-498.51121314 2566.74942508 -518.60973099 2566.76050563 -538.70824943 2566.77066757 C-548.56518395 2566.77565672 -558.42211837 2566.78084296 -568.27905273 2566.78613281 C-569.25991329 2566.78665585 -570.24077384 2566.78717888 -571.25135744 2566.78771777 C-603.01877794 2566.80474981 -634.78616989 2566.83478507 -666.55357312 2566.87159513 C-699.21065577 2566.90936719 -731.86772264 2566.93395769 -764.52482677 2566.94206621 C-769.14205285 2566.94321876 -773.75927888 2566.9445213 -778.3765049 2566.94591522 C-779.28520203 2566.94618491 -780.19389916 2566.94645461 -781.13013257 2566.94673247 C-795.73182698 2566.95145128 -810.33347245 2566.9699817 -824.93514694 2566.99373439 C-839.6304017 2567.01734247 -854.32560816 2567.02626341 -869.0208812 2567.02041176 C-877.74148495 2567.0173796 -886.46191131 2567.02538901 -895.18248288 2567.04959642 C-901.02218538 2567.06469268 -906.86177288 2567.06499364 -912.70148358 2567.0537335 C-916.01980954 2567.04774481 -919.33753402 2567.05000903 -922.65586587 2567.06593898 C-960.36851923 2567.23635208 -991.72073397 2558.00178327 -1019.421875 2531.5078125 C-1038.86802927 2512.15921419 -1050.5729108 2484.62682608 -1050.82533716 2457.29279752 C-1050.82883904 2454.53330833 -1050.81304448 2451.77429986 -1050.79687881 2449.01486111 C-1050.79984349 2446.97922859 -1050.80456431 2444.94359801 -1050.81086481 2442.90797308 C-1050.82306919 2437.3351225 -1050.81050084 2431.76256662 -1050.79375227 2426.18973813 C-1050.77995721 2420.11922811 -1050.78950971 2414.04874651 -1050.79606223 2407.97823054 C-1050.80434172 2397.34617341 -1050.79794015 2386.71421614 -1050.7815094 2376.08217621 C-1050.76396707 2364.68046425 -1050.75522251 2353.27879533 -1050.75711823 2341.87706947 C-1050.75723299 2341.15563163 -1050.75734776 2340.43419379 -1050.75746601 2339.6908942 C-1050.75809155 2336.01196682 -1050.75885934 2332.33303948 -1050.75967735 2328.65411213 C-1050.76530033 2302.05852958 -1050.75160839 2275.46298529 -1050.72760773 2248.86741447 C-1050.70390268 2222.53639473 -1050.68850433 2196.20539138 -1050.68419647 2169.87436104 C-1050.68405882 2169.05604829 -1050.68392118 2168.23773555 -1050.68377936 2167.39462545 C-1050.68252653 2159.92039101 -1050.68137577 2152.44615656 -1050.68034746 2144.97192208 C-1050.67779016 2126.39338573 -1050.67395305 2107.81484975 -1050.66924667 2089.23631382 C-1050.66892677 2087.96739889 -1050.66892677 2087.96739889 -1050.6686004 2086.67284931 C-1050.65811911 2045.54157762 -1050.63289083 2004.41031674 -1050.60644531 1963.27905273 C-1050.59727851 1949.00897225 -1050.58817699 1934.73889173 -1050.5793457 1920.46881104 C-1050.57879791 1919.58375636 -1050.57825011 1918.69870168 -1050.57768571 1917.78682717 C-1050.55230042 1876.62816279 -1050.53740414 1835.46949655 -1050.52520652 1794.3108264 C-1050.52441427 1791.63814764 -1050.5236175 1788.96546889 -1050.52281981 1786.29279013 C-1050.51754059 1768.580525 -1050.51244201 1750.86825983 -1050.50746437 1733.15599461 C-1050.49755885 1697.9142203 -1050.48659214 1662.67244635 -1050.47489618 1627.43067259 C-1050.47433922 1625.7524397 -1050.473783 1624.0742068 -1050.47322753 1622.39597391 C-1050.45611668 1570.71229846 -1050.43421747 1519.02862672 -1050.4072876 1467.34495544 C-1050.40620426 1465.26057856 -1050.40512096 1463.17620168 -1050.40403804 1461.0918248 C-1050.37383818 1403.25001698 -1050.33861025 1345.40821196 -1050.3046875 1287.56640625 C-1201.1146875 1287.56640625 -1351.9246875 1287.56640625 -1507.3046875 1287.56640625 C-1500.00771097 1280.26942972 -1492.35953253 1273.56196737 -1484.34375 1267.0703125 C-1478.8695894 1262.56011077 -1473.55042444 1257.86982335 -1468.20117188 1253.21289062 C-1465.22613561 1250.63003216 -1462.2352469 1248.06583711 -1459.2421875 1245.50390625 C-1458.66879639 1245.01301514 -1458.09540527 1244.52212402 -1457.50463867 1244.01635742 C-1456.34938232 1243.02755422 -1455.19402774 1242.03886576 -1454.03857422 1241.05029297 C-1451.12574704 1238.55745101 -1448.21534689 1236.06177859 -1445.3046875 1233.56640625 C-1444.13803232 1232.56639285 -1442.97136566 1231.56639284 -1441.8046875 1230.56640625 C-1441.2271875 1230.07140625 -1440.6496875 1229.57640625 -1440.0546875 1229.06640625 C-1438.3046875 1227.56640625 -1436.5546875 1226.06640625 -1434.8046875 1224.56640625 C-1433.93807495 1223.8235437 -1433.93807495 1223.8235437 -1433.05395508 1223.06567383 C-1431.88986773 1222.0679543 -1430.72564294 1221.07039511 -1429.5612793 1220.07299805 C-1426.60398863 1217.53941882 -1423.64930381 1215.00290488 -1420.69921875 1212.4609375 C-1415.36633428 1207.87034072 -1410.02282805 1203.30879227 -1404.5546875 1198.87890625 C-1400.17961003 1195.32895304 -1395.99919558 1191.61076804 -1391.8359375 1187.81640625 C-1388.32669264 1184.69707749 -1384.67306627 1181.76891492 -1381.0234375 1178.81640625 C-1378.38321021 1176.63139056 -1375.8373903 1174.37469234 -1373.3046875 1172.06640625 C-1369.00476959 1168.14749373 -1364.54549203 1164.47469756 -1360.0234375 1160.81640625 C-1357.38321021 1158.63139056 -1354.8373903 1156.37469234 -1352.3046875 1154.06640625 C-1348.00476959 1150.14749373 -1343.54549203 1146.47469756 -1339.0234375 1142.81640625 C-1336.38321021 1140.63139056 -1333.8373903 1138.37469234 -1331.3046875 1136.06640625 C-1327.98479264 1133.04358204 -1324.60704638 1130.14128464 -1321.1171875 1127.31640625 C-1314.67756757 1122.1012211 -1308.45013347 1116.65308873 -1302.20117188 1111.21289062 C-1299.22613561 1108.63003216 -1296.2352469 1106.06583711 -1293.2421875 1103.50390625 C-1292.66879639 1103.01301514 -1292.09540527 1102.52212402 -1291.50463867 1102.01635742 C-1290.34938232 1101.02755422 -1289.19402774 1100.03886576 -1288.03857422 1099.05029297 C-1285.12574704 1096.55745101 -1282.21534689 1094.06177859 -1279.3046875 1091.56640625 C-1278.13803232 1090.56639285 -1276.97136566 1089.56639284 -1275.8046875 1088.56640625 C-1275.2271875 1088.07140625 -1274.6496875 1087.57640625 -1274.0546875 1087.06640625 C-1272.3046875 1085.56640625 -1270.5546875 1084.06640625 -1268.8046875 1082.56640625 C-1268.22710693 1082.07132568 -1267.64952637 1081.57624512 -1267.05444336 1081.06616211 C-1265.88863646 1080.06692229 -1264.72278364 1079.06773602 -1263.55688477 1078.06860352 C-1260.62668352 1075.55741164 -1257.69730459 1073.04527232 -1254.76953125 1070.53125 C-1248.62536701 1065.25717623 -1242.46433841 1060.00482496 -1236.27368164 1054.78540039 C-1232.04184017 1051.20924142 -1227.85785233 1047.58002771 -1223.6796875 1043.94140625 C-1218.4822578 1039.41531673 -1213.2050312 1035.012327 -1207.84765625 1030.67578125 C-1204.41321371 1027.8269349 -1201.13332954 1024.82162431 -1197.8359375 1021.81640625 C-1194.32669264 1018.69707749 -1190.67306627 1015.76891492 -1187.0234375 1012.81640625 C-1184.38321021 1010.63139056 -1181.8373903 1008.37469234 -1179.3046875 1006.06640625 C-1175.98479264 1003.04358204 -1172.60704638 1000.14128464 -1169.1171875 997.31640625 C-1162.67756757 992.1012211 -1156.45013347 986.65308873 -1150.20117188 981.21289062 C-1147.22613561 978.63003216 -1144.2352469 976.06583711 -1141.2421875 973.50390625 C-1140.66879639 973.01301514 -1140.09540527 972.52212402 -1139.50463867 972.01635742 C-1138.34938232 971.02755422 -1137.19402774 970.03886576 -1136.03857422 969.05029297 C-1133.12574704 966.55745101 -1130.21534689 964.06177859 -1127.3046875 961.56640625 C-1126.13803232 960.56639285 -1124.97136566 959.56639284 -1123.8046875 958.56640625 C-1123.2271875 958.07140625 -1122.6496875 957.57640625 -1122.0546875 957.06640625 C-1115.63802083 951.56640625 -1109.22135417 946.06640625 -1102.8046875 940.56640625 C-1102.22710693 940.07132568 -1101.64952637 939.57624512 -1101.05444336 939.06616211 C-1099.88863646 938.06692229 -1098.72278364 937.06773602 -1097.55688477 936.06860352 C-1094.62668352 933.55741164 -1091.69730459 931.04527232 -1088.76953125 928.53125 C-1082.59808943 923.23364065 -1076.41067209 917.95624626 -1070.19677734 912.70849609 C-1064.46299986 907.86243983 -1058.76645597 902.97326844 -1053.07080078 898.08251953 C-1050.15026475 895.5753964 -1047.22736439 893.07103297 -1044.3046875 890.56640625 C-1043.13800934 889.56641966 -1041.97134268 888.56641965 -1040.8046875 887.56640625 C-1033.8046875 881.56640625 -1026.8046875 875.56640625 -1019.8046875 869.56640625 C-1019.22710693 869.07132568 -1018.64952637 868.57624512 -1018.05444336 868.06616211 C-1016.88863646 867.06692229 -1015.72278364 866.06773602 -1014.55688477 865.06860352 C-1011.62668352 862.55741164 -1008.69730459 860.04527232 -1005.76953125 857.53125 C-999.59808943 852.23364065 -993.41067209 846.95624626 -987.19677734 841.70849609 C-981.46299986 836.86243983 -975.76645597 831.97326844 -970.07080078 827.08251953 C-967.15026475 824.5753964 -964.22736439 822.07103297 -961.3046875 819.56640625 C-960.13800934 818.56641966 -958.97134268 817.56641965 -957.8046875 816.56640625 C-946.13802083 806.56640625 -934.47135417 796.56640625 -922.8046875 786.56640625 C-922.2269458 786.07116455 -921.6492041 785.57592285 -921.05395508 785.06567383 C-919.88986773 784.0679543 -918.72564294 783.07039511 -917.5612793 782.07299805 C-914.60398863 779.53941882 -911.64930381 777.00290488 -908.69921875 774.4609375 C-903.36633428 769.87034072 -898.02282805 765.30879227 -892.5546875 760.87890625 C-888.17961003 757.32895304 -883.99919558 753.61076804 -879.8359375 749.81640625 C-876.32669264 746.69707749 -872.67306627 743.76891492 -869.0234375 740.81640625 C-866.38321021 738.63139056 -863.8373903 736.37469234 -861.3046875 734.06640625 C-857.00476959 730.14749373 -852.54549203 726.47469756 -848.0234375 722.81640625 C-845.38321021 720.63139056 -842.8373903 718.37469234 -840.3046875 716.06640625 C-836.98479264 713.04358204 -833.60704638 710.14128464 -830.1171875 707.31640625 C-823.67756757 702.1012211 -817.45013347 696.65308873 -811.20117188 691.21289062 C-808.22613561 688.63003216 -805.2352469 686.06583711 -802.2421875 683.50390625 C-801.66879639 683.01301514 -801.09540527 682.52212402 -800.50463867 682.01635742 C-799.34938232 681.02755422 -798.19402774 680.03886576 -797.03857422 679.05029297 C-794.12574704 676.55745101 -791.21534689 674.06177859 -788.3046875 671.56640625 C-787.13803232 670.56639285 -785.97136566 669.56639284 -784.8046875 668.56640625 C-784.2271875 668.07140625 -783.6496875 667.57640625 -783.0546875 667.06640625 C-766.4296875 652.81640625 -766.4296875 652.81640625 -749.8046875 638.56640625 C-749.2269458 638.07116455 -748.6492041 637.57592285 -748.05395508 637.06567383 C-746.88986773 636.0679543 -745.72564294 635.07039511 -744.5612793 634.07299805 C-741.60398863 631.53941882 -738.64930381 629.00290488 -735.69921875 626.4609375 C-730.36633428 621.87034072 -725.02282805 617.30879227 -719.5546875 612.87890625 C-715.17961003 609.32895304 -710.99919558 605.61076804 -706.8359375 601.81640625 C-703.32669264 598.69707749 -699.67306627 595.76891492 -696.0234375 592.81640625 C-693.38321021 590.63139056 -690.8373903 588.37469234 -688.3046875 586.06640625 C-684.00476959 582.14749373 -679.54549203 578.47469756 -675.0234375 574.81640625 C-672.38321021 572.63139056 -669.8373903 570.37469234 -667.3046875 568.06640625 C-663.00476959 564.14749373 -658.54549203 560.47469756 -654.0234375 556.81640625 C-651.38321021 554.63139056 -648.8373903 552.37469234 -646.3046875 550.06640625 C-642.98479264 547.04358204 -639.60704638 544.14128464 -636.1171875 541.31640625 C-629.67756757 536.1012211 -623.45013347 530.65308873 -617.20117188 525.21289062 C-614.22613561 522.63003216 -611.2352469 520.06583711 -608.2421875 517.50390625 C-607.66879639 517.01301514 -607.09540527 516.52212402 -606.50463867 516.01635742 C-605.34938232 515.02755422 -604.19402774 514.03886576 -603.03857422 513.05029297 C-600.12574704 510.55745101 -597.21534689 508.06177859 -594.3046875 505.56640625 C-593.13803232 504.56639285 -591.97136566 503.56639284 -590.8046875 502.56640625 C-590.2271875 502.07140625 -589.6496875 501.57640625 -589.0546875 501.06640625 C-587.3046875 499.56640625 -585.5546875 498.06640625 -583.8046875 496.56640625 C-583.22710693 496.07132568 -582.64952637 495.57624512 -582.05444336 495.06616211 C-580.88863646 494.06692229 -579.72278364 493.06773602 -578.55688477 492.06860352 C-575.62668352 489.55741164 -572.69730459 487.04527232 -569.76953125 484.53125 C-563.59808943 479.23364065 -557.41067209 473.95624626 -551.19677734 468.70849609 C-545.46299986 463.86243983 -539.76645597 458.97326844 -534.07080078 454.08251953 C-531.15026475 451.5753964 -528.22736439 449.07103297 -525.3046875 446.56640625 C-524.13800934 445.56641966 -522.97134268 444.56641965 -521.8046875 443.56640625 C-514.8046875 437.56640625 -507.8046875 431.56640625 -500.8046875 425.56640625 C-500.2269458 425.07116455 -499.6492041 424.57592285 -499.05395508 424.06567383 C-497.88986773 423.0679543 -496.72564294 422.07039511 -495.5612793 421.07299805 C-492.60398863 418.53941882 -489.64930381 416.00290488 -486.69921875 413.4609375 C-481.36633428 408.87034072 -476.02282805 404.30879227 -470.5546875 399.87890625 C-466.17961003 396.32895304 -461.99919558 392.61076804 -457.8359375 388.81640625 C-454.32669264 385.69707749 -450.67306627 382.76891492 -447.0234375 379.81640625 C-444.38321021 377.63139056 -441.8373903 375.37469234 -439.3046875 373.06640625 C-435.00476959 369.14749373 -430.54549203 365.47469756 -426.0234375 361.81640625 C-423.38321021 359.63139056 -420.8373903 357.37469234 -418.3046875 355.06640625 C-414.98479264 352.04358204 -411.60704638 349.14128464 -408.1171875 346.31640625 C-401.67756757 341.1012211 -395.45013347 335.65308873 -389.20117188 330.21289062 C-386.22613561 327.63003216 -383.2352469 325.06583711 -380.2421875 322.50390625 C-379.66879639 322.01301514 -379.09540527 321.52212402 -378.50463867 321.01635742 C-377.34938232 320.02755422 -376.19402774 319.03886576 -375.03857422 318.05029297 C-372.12574704 315.55745101 -369.21534689 313.06177859 -366.3046875 310.56640625 C-365.13803232 309.56639285 -363.97136566 308.56639284 -362.8046875 307.56640625 C-362.2271875 307.07140625 -361.6496875 306.57640625 -361.0546875 306.06640625 C-354.63802083 300.56640625 -348.22135417 295.06640625 -341.8046875 289.56640625 C-341.22710693 289.07132568 -340.64952637 288.57624512 -340.05444336 288.06616211 C-338.88863646 287.06692229 -337.72278364 286.06773602 -336.55688477 285.06860352 C-333.62668352 282.55741164 -330.69730459 280.04527232 -327.76953125 277.53125 C-321.59808943 272.23364065 -315.41067209 266.95624626 -309.19677734 261.70849609 C-303.46299986 256.86243983 -297.76645597 251.97326844 -292.07080078 247.08251953 C-289.15026475 244.5753964 -286.22736439 242.07103297 -283.3046875 239.56640625 C-282.13800934 238.56641966 -280.97134268 237.56641965 -279.8046875 236.56640625 C-272.8046875 230.56640625 -265.8046875 224.56640625 -258.8046875 218.56640625 C-258.22710693 218.07132568 -257.64952637 217.57624512 -257.05444336 217.06616211 C-255.88863646 216.06692229 -254.72278364 215.06773602 -253.55688477 214.06860352 C-250.62668352 211.55741164 -247.69730459 209.04527232 -244.76953125 206.53125 C-238.59808943 201.23364065 -232.41067209 195.95624626 -226.19677734 190.70849609 C-220.46299986 185.86243983 -214.76645597 180.97326844 -209.07080078 176.08251953 C-206.15026475 173.5753964 -203.22736439 171.07103297 -200.3046875 168.56640625 C-199.13800934 167.56641966 -197.97134268 166.56641965 -196.8046875 165.56640625 C-185.13802083 155.56640625 -173.47135417 145.56640625 -161.8046875 135.56640625 C-161.2269458 135.07116455 -160.6492041 134.57592285 -160.05395508 134.06567383 C-158.88986773 133.0679543 -157.72564294 132.07039511 -156.5612793 131.07299805 C-153.60398863 128.53941882 -150.64930381 126.00290488 -147.69921875 123.4609375 C-142.36633428 118.87034072 -137.02282805 114.30879227 -131.5546875 109.87890625 C-127.17961003 106.32895304 -122.99919558 102.61076804 -118.8359375 98.81640625 C-115.32669264 95.69707749 -111.67306627 92.76891492 -108.0234375 89.81640625 C-105.38321021 87.63139056 -102.8373903 85.37469234 -100.3046875 83.06640625 C-96.00476959 79.14749373 -91.54549203 75.47469756 -87.0234375 71.81640625 C-84.38321021 69.63139056 -81.8373903 67.37469234 -79.3046875 65.06640625 C-75.98479264 62.04358204 -72.60704638 59.14128464 -69.1171875 56.31640625 C-62.67756757 51.1012211 -56.45013347 45.65308873 -50.20117188 40.21289062 C-47.22613561 37.63003216 -44.2352469 35.06583711 -41.2421875 32.50390625 C-40.66879639 32.01301514 -40.09540527 31.52212402 -39.50463867 31.01635742 C-38.34938232 30.02755422 -37.19402774 29.03886576 -36.03857422 28.05029297 C-33.70941586 26.05696369 -31.38184572 24.06178531 -29.05444336 22.06640625 C-27.8952843 21.07270271 -26.73594415 20.07921036 -25.57641602 19.0859375 C-22.53200284 16.47778869 -19.49055153 13.8662836 -16.453125 11.25 C-15.82148438 10.70666016 -15.18984375 10.16332031 -14.5390625 9.60351562 C-13.33245249 8.56547613 -12.12667289 7.5264703 -10.921875 6.48632812 C-9.39091266 5.17020602 -7.84829248 3.86767746 -6.3046875 2.56640625 C-5.61632813 1.91800781 -4.92796875 1.26960938 -4.21875 0.6015625 C-2.3046875 -0.43359375 -2.3046875 -0.43359375 0 0 Z " fill="#FEFEFE" transform="translate(2430.3046875,1255.43359375)"/>
</svg>
