<?xml version="1.0" encoding="UTF-8"?>
<svg version="1.1" xmlns="http://www.w3.org/2000/svg" width="474" height="474">
<path d="M0 0 C156.42 0 312.84 0 474 0 C474 156.42 474 312.84 474 474 C317.58 474 161.16 474 0 474 C0 317.58 0 161.16 0 0 Z " fill="#020202" transform="translate(0,0)"/>
<path d="M0 0 C1.25565873 1.52472845 2.46669629 3.08755994 3.625 4.6875 C6.52121099 8.09668086 6.52121099 8.09668086 10.6171875 9.5234375 C12.60545676 9.55037882 14.59373916 9.57636235 16.58203125 9.6015625 C26.86773924 10.80058217 36.82195379 17.36504502 43.17578125 25.31640625 C49.48451228 34.59713048 52.53699357 44.17540251 55 55 C55.1757959 55.74709229 55.3515918 56.49418457 55.53271484 57.26391602 C56.58271416 63.41195274 56.29102223 69.7727595 56.3125 76 C56.31578308 76.77178589 56.31906616 77.54357178 56.32244873 78.33874512 C56.3465894 95.9760114 55.19854208 114.05321084 50 131 C49.6045472 134.79634684 49.83459483 136.65540589 51.5 140.125 C54.86959979 147.32731993 53.61848888 156.69190108 51 164 C47.52720926 173.18609163 43.42111089 179.7566668 35 185 C34.34 185 33.68 185 33 185 C32.731875 186.27875 32.46375 187.5575 32.1875 188.875 C31.79589399 190.58430733 31.39992677 192.29262032 31 194 C30.84015625 194.73476562 30.6803125 195.46953125 30.515625 196.2265625 C29.0109476 202.14360469 26.44329176 207.36820988 23.625 212.75 C23.24980225 213.47123047 22.87460449 214.19246094 22.48803711 214.93554688 C22.11300049 215.63228516 21.73796387 216.32902344 21.3515625 217.046875 C21.01979004 217.66401367 20.68801758 218.28115234 20.34619141 218.91699219 C19 221 19 221 16.39013672 223.70410156 C13.21404062 227.46400591 13.30632047 230.92476528 13.40625 235.6875 C13.40620972 236.50822998 13.40616943 237.32895996 13.40612793 238.17456055 C13.41146793 239.90258479 13.4289856 241.63060967 13.45800781 243.35839844 C13.49987756 245.99229748 13.49907038 248.62363646 13.4921875 251.2578125 C13.50268116 252.94272597 13.51562022 254.62762635 13.53125 256.3125 C13.53145142 257.09391357 13.53165283 257.87532715 13.53186035 258.68041992 C13.6362735 263.54263628 14.54508676 266.69004608 17 271 C17 271.66 17 272.32 17 273 C17.99 273.33 18.98 273.66 20 274 C20.73605469 274.92039062 21.47210938 275.84078125 22.23046875 276.7890625 C25.09855828 280.36378278 28.27143212 282.29548467 32.3125 284.375 C33.03961182 284.7558374 33.76672363 285.1366748 34.51586914 285.52905273 C41.76579923 289.16116909 49.33630553 291.59301047 57.04418945 294.0546875 C81.77430087 301.99783525 107.54623231 315.33491089 123 337 C121.42961283 341.13923039 118.42712649 343.54580332 115.125 346.3125 C114.52002686 346.82449951 113.91505371 347.33649902 113.29174805 347.86401367 C101.53172698 357.68136775 89.2143694 367.22270137 76 375 C75.34273926 375.39606445 74.68547852 375.79212891 74.00830078 376.20019531 C24.86290404 405.79753286 -28.72332056 419.54937766 -85.3671875 405.71484375 C-124.58965836 395.56472393 -163.45841508 373.74931303 -193 346 C-194.51606013 344.66124181 -196.03678355 343.32774286 -197.5625 342 C-198.22378906 341.4225 -198.88507813 340.845 -199.56640625 340.25 C-200.03949219 339.8375 -200.51257813 339.425 -201 339 C-198.83865001 334.24503002 -195.49977435 330.81727965 -192 327 C-191.26330078 326.14728516 -191.26330078 326.14728516 -190.51171875 325.27734375 C-184.69452839 318.9190194 -177.24448723 314.54433606 -170 310 C-168.906875 309.30648438 -167.81375 308.61296875 -166.6875 307.8984375 C-153.28269955 299.81044492 -138.57678642 294.04656279 -123.4609375 290.09375 C-119.07200648 288.70672891 -114.97613107 286.888832 -110.8125 284.9375 C-110.0805542 284.5964624 -109.3486084 284.2554248 -108.59448242 283.90405273 C-104.70764695 282.07224113 -104.70764695 282.07224113 -101.4050293 279.38110352 C-100 278 -100 278 -98 278 C-97.62875 277.2265625 -97.62875 277.2265625 -97.25 276.4375 C-96.19473418 274.37973165 -95.08843974 272.37972777 -93.9375 270.375 C-91.12966945 265.48394033 -90.81257767 262.19817222 -90.76171875 256.6328125 C-90.74961113 255.38611282 -90.74961113 255.38611282 -90.73725891 254.11422729 C-90.72341929 252.35400478 -90.71269658 250.59375545 -90.70483398 248.83349609 C-90.68761127 246.1423867 -90.64372463 243.45250281 -90.59960938 240.76171875 C-90.58948323 239.05209237 -90.58096688 237.34245555 -90.57421875 235.6328125 C-90.54795662 234.42638596 -90.54795662 234.42638596 -90.52116394 233.19558716 C-90.53522314 229.57199142 -90.59917889 227.49700182 -92.91479492 224.62573242 C-93.6029126 224.08924072 -94.29103027 223.55274902 -95 223 C-101.59379911 213.25327075 -113 195.79594954 -113 184 C-113.5878125 183.74347656 -114.175625 183.48695313 -114.78125 183.22265625 C-121.56728275 179.48316989 -125.61591092 172.13944957 -128 165 C-129.2390027 160.36399654 -129.1836323 155.76500123 -129.1875 151 C-129.19974609 150.2059375 -129.21199219 149.411875 -129.22460938 148.59375 C-129.23571543 144.15132787 -128.72643748 141.12813479 -127 137 C-126.93653085 134.04417068 -126.93653085 134.04417068 -127.3125 130.9375 C-127.41175781 129.91527344 -127.51101562 128.89304688 -127.61328125 127.83984375 C-127.82271286 125.76033594 -128.03437324 123.68102417 -128.25830078 121.60302734 C-129.13627792 112.56034081 -129.22050454 103.53391214 -129.24023438 94.45654297 C-129.24993184 91.76888976 -129.28105031 89.08200595 -129.3125 86.39453125 C-129.47888102 59.06232446 -122.45702058 33.99804394 -103.109375 14.05078125 C-80.28410466 -7.28796938 -27.02763379 -20.23400301 0 0 Z " fill="#FDFDFD" transform="translate(276,46)"/>
<path d="M0 0 C0.66 0 1.32 0 2 0 C2 69.63 2 139.26 2 211 C-67.3 211 -136.6 211 -208 211 C-208 210.34 -208 209.68 -208 209 C-207.42781738 208.89977539 -206.85563477 208.79955078 -206.26611328 208.69628906 C-182.1471956 204.44935646 -158.95278669 199.91624912 -136.87402344 188.9296875 C-134.93641531 187.96845616 -132.98880978 187.03008544 -131.0390625 186.09375 C-117.57721896 179.57064819 -104.86988065 172.13907989 -93 163 C-92.15953125 162.35289062 -91.3190625 161.70578125 -90.453125 161.0390625 C-73.53493884 147.74620195 -57.57957903 132.50355218 -45 115 C-44.46141357 114.25355225 -43.92282715 113.50710449 -43.36791992 112.73803711 C-32.98078305 98.13931805 -24.0346079 82.48108136 -17 66 C-16.54367187 64.93265625 -16.08734375 63.8653125 -15.6171875 62.765625 C-7.52815698 42.72110913 -2.40456203 21.45122442 0 0 Z " fill="#FCFCFC" transform="translate(472,263)"/>
<path d="M0 0 C69.96 0 139.92 0 212 0 C212 0.66 212 1.32 212 2 C211.33170166 2.10022461 210.66340332 2.20044922 209.97485352 2.30371094 C167.58631187 8.71817327 129.59801205 21.9052705 95 48 C94.18402344 48.60328125 93.36804688 49.2065625 92.52734375 49.828125 C87.26056785 53.80375125 82.41246861 58.17994508 77.578125 62.66796875 C75.89263591 64.19257025 74.15821193 65.66516289 72.375 67.07421875 C70.22996818 68.81352909 68.5232912 70.52033621 66.75 72.625 C64.12223955 75.70680113 61.43273575 78.70986334 58.6875 81.6875 C26.24455002 117.85700504 9.03490974 162.45436678 2 210 C1.34 210 0.68 210 0 210 C0 140.7 0 71.4 0 0 Z " fill="#FCFCFC" transform="translate(0,0)"/>
<path d="M0 0 C0.66 0 1.32 0 2 0 C2.12117187 0.93199219 2.24234375 1.86398437 2.3671875 2.82421875 C2.53476562 4.09910156 2.70234375 5.37398438 2.875 6.6875 C3.03742188 7.92886719 3.19984375 9.17023438 3.3671875 10.44921875 C3.46555908 11.15224121 3.56393066 11.85526367 3.6652832 12.57958984 C3.90994909 14.3488222 4.13794413 16.12038245 4.35620117 17.89306641 C5.52512617 26.58316218 7.80946272 34.6917222 10.5625 43 C10.78242615 43.67264893 11.00235229 44.34529785 11.22894287 45.03833008 C15.14659442 56.99230769 19.57097612 68.64380706 25 80 C25.48218994 81.01006104 25.48218994 81.01006104 25.97412109 82.04052734 C35.12536301 100.84957242 47.79175058 118.48041022 61.9921875 133.78125 C63.39171328 135.32780767 64.73088626 136.93021887 66.01953125 138.5703125 C67.82990713 140.79132591 69.62034174 142.54448089 71.8125 144.375 C74.41060366 146.5876707 76.84325066 148.83412694 79.1875 151.3125 C99.98310713 172.44045702 130.13397778 188.70148623 158 198 C159.2375 198.43699219 160.475 198.87398437 161.75 199.32421875 C176.96513657 204.60196925 192.09801454 207.71841078 208 210 C208 210.66 208 211.32 208 212 C139.36 212 70.72 212 0 212 C0 142.04 0 72.08 0 0 Z " fill="#FCFCFC" transform="translate(0,262)"/>
<path d="M0 0 C69.63 0 139.26 0 211 0 C211 69.63 211 139.26 211 211 C210.34 211 209.68 211 209 211 C208.90295776 210.1495813 208.90295776 210.1495813 208.80395508 209.28198242 C207.22605252 195.82037424 204.80049559 183.00548576 201 170 C200.72027344 168.99324219 200.44054687 167.98648438 200.15234375 166.94921875 C198.49535328 161.12711561 196.35651535 155.57201855 194 150 C193.27683594 148.25783203 193.27683594 148.25783203 192.5390625 146.48046875 C186.12433343 131.25927453 178.69725675 116.40962337 169 103 C168.55930176 102.38560059 168.11860352 101.77120117 167.66455078 101.13818359 C161.69381599 92.85032652 155.46470058 85.02736495 148.44921875 77.6015625 C146.38670169 75.41075491 144.43240923 73.17920293 142.5 70.875 C133.65223318 60.75731841 122.871554 52.78731265 112 45 C111.39704102 44.566875 110.79408203 44.13375 110.17285156 43.6875 C92.90106713 31.41216182 74.30694584 22.13051751 54.42675781 14.88818359 C52.23969658 14.08772798 50.0695517 13.25257427 47.8984375 12.41015625 C43.67062948 10.82512891 39.3678975 9.63298856 35 8.5 C34.17838379 8.28569336 33.35676758 8.07138672 32.51025391 7.85058594 C21.81140742 5.11659664 11.01004153 2.98303942 0 2 C0 1.34 0 0.68 0 0 Z " fill="#FCFCFC" transform="translate(263,0)"/>
<path d="M0 0 C4.12486838 -0.08676908 8.24950384 -0.14031295 12.375 -0.1875 C13.550625 -0.21263672 14.72625 -0.23777344 15.9375 -0.26367188 C17.61972656 -0.27817383 17.61972656 -0.27817383 19.3359375 -0.29296875 C20.37282715 -0.3086792 21.4097168 -0.32438965 22.47802734 -0.34057617 C23.31027832 -0.22818604 24.1425293 -0.1157959 25 0 C25.66 0.99 26.32 1.98 27 3 C27.66 3.33 28.32 3.66 29 4 C28.67 4.66 28.34 5.32 28 6 C27.23558594 5.87882813 26.47117187 5.75765625 25.68359375 5.6328125 C17.13670802 4.29575456 8.57811028 3.11527298 0 2 C0 1.34 0 0.68 0 0 Z " fill="#EDEDED" transform="translate(263,0)"/>
<path d="M0 0 C0.80566406 0.00322266 1.61132812 0.00644531 2.44140625 0.00976562 C3.70404297 0.02233398 3.70404297 0.02233398 4.9921875 0.03515625 C5.84167969 0.03966797 6.69117188 0.04417969 7.56640625 0.04882812 C9.66669659 0.06062751 11.7669508 0.07856319 13.8671875 0.09765625 C13.8671875 0.75765625 13.8671875 1.41765625 13.8671875 2.09765625 C10.78598066 2.63163065 7.70200891 3.14751176 4.6171875 3.66015625 C3.74449219 3.81162109 2.87179688 3.96308594 1.97265625 4.11914062 C1.12832031 4.25771484 0.28398437 4.39628906 -0.5859375 4.5390625 C-1.36098633 4.66998291 -2.13603516 4.80090332 -2.93457031 4.93579102 C-5.24455097 5.10588399 -6.93366463 4.78324717 -9.1328125 4.09765625 C-8.1428125 4.09765625 -7.1528125 4.09765625 -6.1328125 4.09765625 C-6.1328125 3.10765625 -6.1328125 2.11765625 -6.1328125 1.09765625 C-3.8362755 -0.05061225 -2.54968083 -0.0179555 0 0 Z " fill="#D3D3D3" transform="translate(198.1328125,-0.09765625)"/>
<path d="M0 0 C0.66 0 1.32 0 2 0 C2.66 6.27 3.32 12.54 4 19 C2.68 18.67 1.36 18.34 0 18 C0 12.06 0 6.12 0 0 Z " fill="#DFDFDF" transform="translate(0,262)"/>
<path d="M0 0 C1.65 0 3.3 0 5 0 C5.625 1.875 5.625 1.875 6 4 C5.34 4.66 4.68 5.32 4 6 C4.350625 6.598125 4.70125 7.19625 5.0625 7.8125 C6 10 6 10 5 13 C2.69 9.37 0.38 5.74 -2 2 C-1.34 2 -0.68 2 0 2 C0 1.34 0 0.68 0 0 Z " fill="#F0F0F0" transform="translate(426,89)"/>
<path d="M0 0 C0.33 0.66 0.66 1.32 1 2 C1.66 2.33 2.32 2.66 3 3 C3 6 3 6 0.6875 8.6875 C-2 11 -2 11 -5 11 C-4.6875 9.0625 -4.6875 9.0625 -4 7 C-3.01 6.67 -2.02 6.34 -1 6 C-1.309375 5.071875 -1.309375 5.071875 -1.625 4.125 C-1.810625 3.073125 -1.810625 3.073125 -2 2 C-1.34 1.34 -0.68 0.68 0 0 Z " fill="#EAEAEA" transform="translate(51,81)"/>
<path d="M0 0 C2.6875 0.3125 2.6875 0.3125 5 1 C4.67 2.65 4.34 4.3 4 6 C5.65 6.33 7.3 6.66 9 7 C9 7.33 9 7.66 9 8 C3.71502591 8.44041451 3.71502591 8.44041451 1 8 C-1.5 5.5 -1.5 5.5 -3 3 C-1.8125 1.4375 -1.8125 1.4375 0 0 Z " fill="#1E1E1E" transform="translate(283,48)"/>
<path d="M0 0 C0.99 0 1.98 0 3 0 C2.34 1.32 1.68 2.64 1 4 C0.34 3.67 -0.32 3.34 -1 3 C-0.67 2.01 -0.34 1.02 0 0 Z M-2 3 C-0.65384615 7.03846154 -0.65384615 7.03846154 -2 10 C-5.0625 12.25 -5.0625 12.25 -8 14 C-8.66 13.67 -9.32 13.34 -10 13 C-7.36 9.7 -4.72 6.4 -2 3 Z " fill="#E9E9E9" transform="translate(432,371)"/>
<path d="M0 0 C-1.375 1.5 -1.375 1.5 -3 3 C-3.66 3 -4.32 3 -5 3 C-5.33 3.99 -5.66 4.98 -6 6 C-7.32 4.68 -8.64 3.36 -10 2 C-6.82020798 -2.76968803 -4.78499148 -2.1985096 0 0 Z " fill="#EEEEEE" transform="translate(314,228)"/>
<path d="M0 0 C0.66 0.99 1.32 1.98 2 3 C2.66 2.34 3.32 1.68 4 1 C4.33 2.32 4.66 3.64 5 5 C-1.5 8.125 -1.5 8.125 -6 7 C-4.02 4.69 -2.04 2.38 0 0 Z " fill="#131313" transform="translate(59,80)"/>
<path d="M0 0 C3.96 1.98 3.96 1.98 8 4 C7.67 4.99 7.34 5.98 7 7 C5.02 7 3.04 7 1 7 C0.34 5.02 -0.32 3.04 -1 1 C-0.67 0.67 -0.34 0.34 0 0 Z " fill="#F1F1F1" transform="translate(114,440)"/>
<path d="M0 0 C0.33 0.99 0.66 1.98 1 3 C-1.1875 5.0625 -1.1875 5.0625 -4 7 C-6.8125 6.75 -6.8125 6.75 -9 6 C-3.2 0 -3.2 0 0 0 Z " fill="#EAEAEA" transform="translate(103,359)"/>
<path d="M0 0 C1.32 0.66 2.64 1.32 4 2 C3.6875 3.875 3.6875 3.875 3 6 C2.01 6.66 1.02 7.32 0 8 C-0.66 7.34 -1.32 6.68 -2 6 C-1.44444444 1.44444444 -1.44444444 1.44444444 0 0 Z " fill="#F2F2F2" transform="translate(58,73)"/>
<path d="M0 0 C0.96349722 2.60144251 1.0123938 3.94670665 0.375 6.6875 C-1 9 -1 9 -3.625 9.8125 C-4.800625 9.9053125 -4.800625 9.9053125 -6 10 C-4.6302836 6.00499382 -2.74277578 3.19990508 0 0 Z M-7 10 C-6.67 10.66 -6.34 11.32 -6 12 C-6.66 11.67 -7.32 11.34 -8 11 C-7.67 10.67 -7.34 10.34 -7 10 Z " fill="#181818" transform="translate(45,98)"/>
<path d="M0 0 C0.66 0.99 1.32 1.98 2 3 C-0.5 4.5 -0.5 4.5 -3 6 C-3.845625 6.515625 -4.69125 7.03125 -5.5625 7.5625 C-7.67386195 8.80766217 -9.79266748 9.93721027 -12 11 C-8.42270128 6.33867137 -4.89132699 3.26088466 0 0 Z " fill="#D5D5D5" transform="translate(183,52)"/>
<path d="M0 0 C2.13093906 1.06546953 3.36587557 2.29159719 5 4 C3.02 5.32 1.04 6.64 -1 8 C-1.99 7.01 -2.98 6.02 -4 5 C-2.68 3.35 -1.36 1.7 0 0 Z " fill="#121212" transform="translate(173,320)"/>
<path d="M0 0 C0 0.66 0 1.32 0 2 C-0.66 2 -1.32 2 -2 2 C-2 2.66 -2 3.32 -2 4 C-5.28700877 5.09566959 -7.01029411 5.45243698 -10.1875 4 C-10.785625 3.67 -11.38375 3.34 -12 3 C-10.3789897 2.30314502 -8.75303934 1.61777139 -7.125 0.9375 C-6.22007812 0.55464844 -5.31515625 0.17179687 -4.3828125 -0.22265625 C-2 -1 -2 -1 0 0 Z " fill="#161616" transform="translate(313,442)"/>
<path d="M0 0 C1.95803507 -0.05389087 3.91648909 -0.09274217 5.875 -0.125 C7.51082031 -0.15980469 7.51082031 -0.15980469 9.1796875 -0.1953125 C12 0 12 0 14 2 C9.20699867 3.39151652 4.84864218 2.68662689 0 2 C0 1.34 0 0.68 0 0 Z " fill="#DCDCDC" transform="translate(263,0)"/>
<path d="M0 0 C0 1.32 0 2.64 0 4 C0.66 4 1.32 4 2 4 C2.33 5.32 2.66 6.64 3 8 C1.68388323 7.04663979 0.37221039 6.08714226 -0.9375 5.125 C-1.66839844 4.59132813 -2.39929688 4.05765625 -3.15234375 3.5078125 C-5 2 -5 2 -6 0 C-3 -1 -3 -1 0 0 Z " fill="#1A1A1A" transform="translate(76,405)"/>
<path d="M0 0 C0.33 0.66 0.66 1.32 1 2 C1.99 2 2.98 2 4 2 C4.66 1.34 5.32 0.68 6 0 C5.45276317 3.37462715 4.9451 5.08235 3 8 C1.68 7.01 0.36 6.02 -1 5 C-0.67 3.35 -0.34 1.7 0 0 Z " fill="#E8E8E8" transform="translate(322,205)"/>
<path d="M0 0 C0 0.99 0 1.98 0 3 C-0.99 3.33 -1.98 3.66 -3 4 C-3.33 4.66 -3.66 5.32 -4 6 C-4.66 6 -5.32 6 -6 6 C-6.33 7.65 -6.66 9.3 -7 11 C-7.66 10.34 -8.32 9.68 -9 9 C-4 0 -4 0 0 0 Z " fill="#0A0A0A" transform="translate(68,73)"/>
<path d="M0 0 C1.32 0.66 2.64 1.32 4 2 C3.67 3.32 3.34 4.64 3 6 C0 6 0 6 -2 5 C-1.34 3.35 -0.68 1.7 0 0 Z " fill="#F0F0F0" transform="translate(83,49)"/>
<path d="M0 0 C0 1.32 0 2.64 0 4 C-0.66 4.66 -1.32 5.32 -2 6 C-3.37562854 4.71034824 -4.70766393 3.37310707 -6 2 C-6 1.34 -6 0.68 -6 0 C-3.50907189 -1.24546405 -2.58919267 -0.7767578 0 0 Z " fill="#EBEBEB" transform="translate(160,221)"/>
<path d="M0 0 C0.66 0.33 1.32 0.66 2 1 C1.67 2.32 1.34 3.64 1 5 C-0.98 5 -2.96 5 -5 5 C-5.33 4.34 -5.66 3.68 -6 3 C-4.03533587 1.93224776 -2.03144641 0.93446535 0 0 Z " fill="#151515" transform="translate(130,25)"/>
<path d="M0 0 C0 3 0 3 -2.5 5.6875 C-3.325 6.450625 -4.15 7.21375 -5 8 C-4.67 8.66 -4.34 9.32 -4 10 C-6.475 9.01 -6.475 9.01 -9 8 C-6.14723863 5.06799526 -3.34920216 2.35684596 0 0 Z " fill="#252525" transform="translate(385,396)"/>
<path d="M0 0 C0.66 0.33 1.32 0.66 2 1 C1.484375 1.598125 0.96875 2.19625 0.4375 2.8125 C-0.2740625 3.8953125 -0.2740625 3.8953125 -1 5 C-0.67 5.99 -0.34 6.98 0 8 C-0.99 8.66 -1.98 9.32 -3 10 C-3.66 9.34 -4.32 8.68 -5 8 C-4.34 7.34 -3.68 6.68 -3 6 C-3 5.01 -3 4.02 -3 3 C-1.5 1.3125 -1.5 1.3125 0 0 Z " fill="#171717" transform="translate(392,390)"/>
<path d="M0 0 C1.80411967 2.75924185 2.0127245 3.88972103 1.625 7.25 C1.41875 8.1575 1.2125 9.065 1 10 C0.34 9.67 -0.32 9.34 -1 9 C-1.75 6.125 -1.75 6.125 -2 3 C-1.34 2.01 -0.68 1.02 0 0 Z " fill="#111111" transform="translate(468,278)"/>
<path d="M0 0 C1.2380014 3.57644848 0.74926071 6.33694766 0 10 C-0.66 10 -1.32 10 -2 10 C-2 7.36 -2 4.72 -2 2 C-1.34 2 -0.68 2 0 2 C0 1.34 0 0.68 0 0 Z " fill="#CFCFCF" transform="translate(2,200)"/>
<path d="M0 0 C1.98 0.66 3.96 1.32 6 2 C4.68 3.32 3.36 4.64 2 6 C0 2.25 0 2.25 0 0 Z " fill="#EDEDED" transform="translate(74,57)"/>
<path d="M0 0 C0.66 0.33 1.32 0.66 2 1 C1.34 2.32 0.68 3.64 0 5 C0.66 5.33 1.32 5.66 2 6 C1.01 6.33 0.02 6.66 -1 7 C-1.66 6.67 -2.32 6.34 -3 6 C-2.42655063 3.13275314 -2.1385485 2.1385485 0 0 Z " fill="#EBEBEB" transform="translate(380,425)"/>
<path d="M0 0 C0.66 0.33 1.32 0.66 2 1 C2 1.99 2 2.98 2 4 C1.01 4.495 1.01 4.495 0 5 C-1.0409066 6.64142963 -2.04504326 8.30712215 -3 10 C-3.33 9.34 -3.66 8.68 -4 8 C-3.22265625 6.0546875 -3.22265625 6.0546875 -2.0625 3.875 C-1.49208984 2.78832031 -1.49208984 2.78832031 -0.91015625 1.6796875 C-0.60980469 1.12539062 -0.30945313 0.57109375 0 0 Z " fill="#1E1E1E" transform="translate(28,124)"/>
<path d="M0 0 C0.66 0.33 1.32 0.66 2 1 C0.37660195 2.70884005 -1.29319053 4.37446717 -3 6 C-3.66 6 -4.32 6 -5 6 C-5.33 6.66 -5.66 7.32 -6 8 C-6 5 -6 5 -4.6875 3.61328125 C-3.125 2.40885417 -1.5625 1.20442708 0 0 Z " fill="#212121" transform="translate(92,49)"/>
<path d="M0 0 C1.65 0.33 3.3 0.66 5 1 C4.67 1.99 4.34 2.98 4 4 C1.4375 5.1875 1.4375 5.1875 -1 6 C-1.33 5.34 -1.66 4.68 -2 4 C-1.34 3.34 -0.68 2.68 0 2 C0 1.34 0 0.68 0 0 Z " fill="#0F0F0F" transform="translate(195,41)"/>
<path d="M0 0 C0 0.66 0 1.32 0 2 C-0.99 2.66 -1.98 3.32 -3 4 C-3 4.66 -3 5.32 -3 6 C-4.65 5.67 -6.3 5.34 -8 5 C-3.22727273 0 -3.22727273 0 0 0 Z " fill="#1F1F1F" transform="translate(360,416)"/>
<path d="M0 0 C0.66 0.33 1.32 0.66 2 1 C2 1.99 2 2.98 2 4 C0.02 4.33 -1.96 4.66 -4 5 C-4.33 4.34 -4.66 3.68 -5 3 C-2.625 1.4375 -2.625 1.4375 0 0 Z " fill="#181818" transform="translate(114,34)"/>
<path d="M0 0 C5.41538462 -0.36923077 5.41538462 -0.36923077 8.375 1.5 C8.91125 1.995 9.4475 2.49 10 3 C8 4 8 4 6.0546875 3.44140625 C5.33539063 3.15136719 4.61609375 2.86132812 3.875 2.5625 C3.15054688 2.27503906 2.42609375 1.98757813 1.6796875 1.69140625 C0.84824219 1.34916016 0.84824219 1.34916016 0 1 C0 0.67 0 0.34 0 0 Z " fill="#E0E0E0" transform="translate(165,442)"/>
<path d="M0 0 C1.32 0.33 2.64 0.66 4 1 C0.535 3.97 0.535 3.97 -3 7 C-2.67 5.68 -2.34 4.36 -2 3 C-1.34 3 -0.68 3 0 3 C0 2.01 0 1.02 0 0 Z " fill="#141414" transform="translate(84,369)"/>
<path d="M0 0 C2.52588702 2.36292656 3.88820837 3.66462511 5 7 C2.37812506 5.95125002 1.20628639 5.35068687 -0.25 2.875 C-0.4975 2.25625 -0.745 1.6375 -1 1 C-0.67 0.67 -0.34 0.34 0 0 Z " fill="#1B1B1B" transform="translate(427,96)"/>
<path d="M0 0 C0.33 1.32 0.66 2.64 1 4 C-0.65 4.33 -2.3 4.66 -4 5 C-3.6875 3.0625 -3.6875 3.0625 -3 1 C-2.01 0.67 -1.02 0.34 0 0 Z " fill="#F1F1F1" transform="translate(50,87)"/>
<path d="M0 0 C1.65 0.33 3.3 0.66 5 1 C5.33 2.32 5.66 3.64 6 5 C3.69 4.01 1.38 3.02 -1 2 C-0.67 1.34 -0.34 0.68 0 0 Z " fill="#DDDDDD" transform="translate(350,27)"/>
</svg>
