<?xml version="1.0" encoding="UTF-8"?>
<svg version="1.1" xmlns="http://www.w3.org/2000/svg" width="5000" height="5000">
<path d="M0 0 C1650 0 3300 0 5000 0 C5000 1650 5000 3300 5000 5000 C3350 5000 1700 5000 0 5000 C0 3350 0 1700 0 0 Z " fill="#FEFEFE" transform="translate(0,0)"/>
<path d="M0 0 C2.08476639 -0.00300056 4.16952811 -0.00711603 6.25429201 -0.01150417 C12.89115066 -0.02510431 19.52799762 -0.03479848 26.16486919 -0.03870606 C32.87759594 -0.04268855 39.59017852 -0.05476093 46.30285692 -0.08106136 C102.77382484 -0.2973398 158.82552099 1.89016777 215.07922411 7.20018864 C215.96787157 7.28375614 216.85651903 7.36732365 217.7720952 7.4534235 C229.4496298 8.55495144 241.11834066 9.7318689 252.7832036 10.95989323 C255.01859589 11.19384345 257.25437548 11.42360458 259.49035692 11.65184879 C278.97228231 13.64504772 298.37053714 16.12195375 317.76672411 18.82518864 C318.86401842 18.97734837 319.96131273 19.12950809 321.09185839 19.28627872 C324.23806539 19.72426502 327.38338997 20.16806014 330.52844286 20.61425114 C331.46134645 20.74435078 332.39425005 20.87445042 333.35542345 21.00849247 C338.34407088 21.72521678 343.23259393 22.62752793 348.14253283 23.76378727 C350.40234303 24.27299814 352.65824222 24.64166646 354.95422411 24.94628239 C355.78470263 25.05955875 356.61518114 25.17283512 357.47082567 25.28954411 C358.33159716 25.4044318 359.19236864 25.5193195 360.07922411 25.63768864 C374.5800528 27.65155154 388.89405879 30.32556622 403.24206591 33.22753239 C409.64470906 34.52136297 416.0535525 35.77010221 422.47302294 36.97753239 C448.83564489 41.94984909 474.99010453 47.9645588 501.07922411 54.20018864 C501.92901842 54.40297428 502.77881273 54.60575993 503.65435839 54.81469059 C547.48442336 65.28092941 547.48442336 65.28092941 567.57727098 71.44139957 C571.81290857 72.72597819 576.07141806 73.92907058 580.32922411 75.13768864 C581.17863573 75.38091862 582.02804735 75.6241486 582.90319872 75.87474918 C587.71196791 77.25079148 592.52671845 78.60183038 597.34875536 79.93065739 C614.48767781 84.689102 631.32082991 90.15501254 648.16038561 95.8657465 C653.37389383 97.63169552 658.59754005 99.36390181 663.82922411 101.07518864 C733.69411645 123.9689517 802.03284681 151.44802347 868.62316942 182.58544254 C871.05346699 183.72093196 873.48487479 184.85371073 875.9180913 185.98290348 C903.8248076 198.93701026 931.55894986 212.33330747 958.66418505 226.90282536 C961.4997667 228.42610487 964.34045654 229.93968848 967.18078661 231.45409489 C980.683502 238.67118447 994.07422153 246.06374324 1007.36926317 253.65624332 C1009.97374323 255.14009304 1012.58403916 256.61310087 1015.19641161 258.08300114 C1028.33599244 265.49903528 1041.22556199 273.30460763 1054.0992589 281.16883183 C1058.39642731 283.79110237 1062.71376322 286.37775913 1067.04016161 288.95140934 C1077.66348449 295.27189968 1088.09987471 301.86785835 1098.49963427 308.54882145 C1100.18327282 309.62663057 1101.87031191 310.69915135 1103.5611577 311.76561832 C1112.33389159 317.30156751 1120.95318876 323.06464791 1129.57922411 328.82518864 C1130.37913774 329.35898136 1131.17905138 329.89277409 1132.00320482 330.44274235 C1143.74959376 338.28258635 1155.4864655 346.13406626 1167.07922411 354.20018864 C1167.7735454 354.68278141 1168.46786669 355.16537418 1169.18322802 355.66259098 C1179.81062783 363.06603011 1190.25782234 370.70220749 1200.66320848 378.41356754 C1203.07361339 380.19603956 1205.48945968 381.97085422 1207.90734911 383.74315739 C1217.74671563 390.95882605 1227.4966844 398.27834912 1237.1627202 405.7246027 C1238.95178161 407.10206603 1240.74342213 408.47607749 1242.53625536 409.84862614 C1255.27664437 419.60896299 1267.84137528 429.57015015 1280.27063036 439.72362614 C1281.87157891 441.03066404 1283.47520387 442.33442219 1285.07922411 443.63768864 C1290.52345047 448.06903567 1295.9003198 452.57282403 1301.24841356 457.11913395 C1304.61811156 459.97911716 1308.01971318 462.79292904 1311.45422411 465.57518864 C1320.29445696 472.77642941 1328.89406097 480.27942025 1337.32922411 487.95018864 C1340.71957197 491.03027172 1344.20033591 493.9507862 1347.76672411 496.82518864 C1351.55117376 499.88676589 1355.04410425 503.04582365 1358.42688036 506.54003239 C1360.12286005 508.24403089 1361.88412107 509.81732947 1363.70422411 511.38768864 C1369.00556991 515.96658616 1374.12579054 520.74001162 1379.25695848 525.50731754 C1380.50490752 526.66665283 1381.75364462 527.82514024 1383.00305223 528.98290348 C1389.50641129 535.00997383 1395.99318811 541.02719381 1402.20423937 547.35764408 C1403.93679474 549.06022352 1405.71764916 550.63198435 1407.57116747 552.20043278 C1413.22828967 557.12235848 1418.47724863 562.45398193 1423.77063036 567.75878239 C1424.88571422 568.87319082 1426.00094633 569.98745093 1427.11631823 571.10157108 C1429.44176173 573.42554885 1431.76540922 575.75130328 1434.08776903 578.07836246 C1437.04510314 581.04139315 1440.00690539 583.99991034 1442.97007895 586.95709991 C1445.27033009 589.25371496 1447.56816642 591.55273429 1449.86530924 593.852458 C1450.95567708 594.9434867 1452.04677091 596.03379041 1453.13864374 597.12331295 C1458.48789269 602.46356858 1463.78023223 607.81249155 1468.67662096 613.57740116 C1470.84946654 616.09134575 1473.20178631 618.37869055 1475.57922411 620.70018864 C1479.33019948 624.36290576 1482.81365486 628.14932267 1486.24523973 632.11229801 C1489.27014919 635.55599153 1492.42744077 638.8729452 1495.57922411 642.20018864 C1499.97789407 646.843733 1504.28761578 651.53909759 1508.4805913 656.36962223 C1510.59520775 658.79103246 1512.77287182 661.15139314 1514.95422411 663.51268864 C1518.26259325 667.13542769 1521.43934768 670.81711755 1524.51672411 674.63768864 C1527.73867701 678.63245564 1531.08602513 682.44548289 1534.57922411 686.20018864 C1538.80873691 690.75129025 1542.80002729 695.44316194 1546.69641161 700.28221989 C1549.45464877 703.65992998 1552.29197726 706.96223462 1555.14172411 710.26268864 C1559.15697904 714.92298452 1563.08515832 719.63067591 1566.89953661 724.45800114 C1569.14659192 727.28494169 1571.42347298 730.08562878 1573.70617723 732.88378239 C1579.75113671 740.29463653 1585.71934413 747.75897706 1591.59875536 755.30175114 C1593.21477225 757.37400498 1594.83454228 759.4432983 1596.45422411 761.51268864 C1603.61602487 770.67678769 1610.6672813 779.91458426 1617.6158452 789.24120426 C1619.08351178 791.20592842 1620.55860176 793.16484207 1622.03625536 795.12206364 C1633.80424159 810.71870199 1645.12518061 826.61735211 1656.2955327 842.64598942 C1658.09945028 845.22915199 1659.91048267 847.80717961 1661.72375536 850.38378239 C1668.6515728 860.23260837 1675.47254491 870.13328015 1682.07922411 880.20018864 C1682.6807329 881.11477848 1683.28224169 882.02936832 1683.90197802 882.97167301 C1698.82006632 905.66601877 1713.57438634 928.44946578 1727.58508348 951.71874332 C1728.90767163 953.91527696 1730.23463606 956.10907157 1731.56359911 958.30175114 C1736.99433562 967.28140258 1742.25316977 976.35817982 1747.49133348 985.4511652 C1749.20669991 988.42088014 1750.9315366 991.38497046 1752.65734911 994.34862614 C1760.01226189 1007.00190089 1767.15848916 1019.74195591 1774.07922411 1032.63768864 C1777.14088735 1038.33817672 1780.28085711 1043.99330025 1783.48278856 1049.61620426 C1786.46942633 1054.92398995 1789.18097846 1060.3625495 1791.88989305 1065.81540775 C1794.28162989 1070.62382706 1796.71730213 1075.4068816 1799.19250536 1080.17284489 C1799.53362352 1080.82998981 1799.87474169 1081.48713474 1800.22619677 1082.16419315 C1800.92386859 1083.50796523 1801.62161291 1084.85169967 1802.31942797 1086.19539738 C1812.39393697 1105.61815157 1821.82355599 1125.28456094 1830.82531786 1145.22753239 C1832.64586026 1149.25662643 1834.50581242 1153.26381445 1836.39172411 1157.26268864 C1852.61419469 1192.00361751 1867.33920852 1227.40770942 1881.07922411 1263.20018864 C1881.61610013 1264.59393328 1882.15304996 1265.98764949 1882.69006395 1267.38134098 C1891.58916342 1290.50412983 1900.06195237 1313.75704404 1908.07922411 1337.20018864 C1908.52715319 1338.50950352 1908.52715319 1338.50950352 1908.98413134 1339.8452692 C1920.57535357 1373.77509248 1931.46729975 1407.88974667 1940.58313036 1442.57518864 C1941.72001705 1446.89259048 1942.92696866 1451.18314025 1944.18273973 1455.46727848 C1952.11244483 1482.53859265 1958.67090608 1509.98613141 1964.63058519 1537.55007267 C1965.74827889 1542.71109799 1966.9004695 1547.86350191 1968.07141161 1553.01268864 C1976.80837716 1591.50175202 1983.85783044 1630.22880521 1990.07922411 1669.20018864 C1990.24617785 1670.24348331 1990.24617785 1670.24348331 1990.41650438 1671.30785465 C1991.73882902 1679.59200227 1992.93877507 1687.88921963 1994.07922411 1696.20018864 C1994.29462579 1697.74951799 1994.51012715 1699.29883349 1994.72570848 1700.84813786 C2001.0371585 1746.40370178 2005.68920765 1792.07700769 2008.89172411 1837.95018864 C2008.9447431 1838.70785904 2008.99776209 1839.46552944 2009.05238771 1840.24615955 C2010.2837324 1857.88575478 2011.47540154 1875.52617068 2012.07922411 1893.20018864 C2012.12307238 1894.46035801 2012.16692064 1895.72052738 2012.21209764 1897.01888371 C2013.09136803 1922.92566363 2013.26706325 1948.82674068 2013.26452684 1974.7468195 C2013.26444573 1979.07824231 2013.27138923 1983.409559 2013.28503466 1987.74096012 C2013.37251251 2015.97648911 2012.8211813 2044.09362756 2011.33393908 2072.29126835 C2011.03234427 2078.02973204 2010.76714199 2083.76975837 2010.50656462 2089.51021194 C2008.74675045 2127.98600856 2005.09075616 2166.31131019 2000.61682177 2204.55712223 C2000.16989885 2208.39039409 1999.74749128 2212.22567635 1999.34094286 2216.06346989 C1992.36021477 2281.32318365 1980.94145837 2346.79296402 1965.90148973 2410.66796207 C1965.03626942 2414.38471014 1964.20233734 2418.10740074 1963.37609911 2421.83300114 C1957.88591848 2446.57911457 1951.99026284 2471.20397401 1944.85314989 2495.53221989 C1943.34743863 2500.72288634 1941.90535593 2505.9315542 1940.45422411 2511.13768864 C1939.33299295 2515.15958813 1938.20784931 2519.1803578 1937.07922411 2523.20018864 C1936.64646166 2524.75141422 1936.64646166 2524.75141422 1936.20495653 2526.3339777 C1933.20671417 2536.97315493 1929.93089902 2547.52303164 1926.64172411 2558.07518864 C1926.18843233 2559.53169834 1926.18843233 2559.53169834 1925.72598314 2561.01763248 C1919.57494883 2580.76888192 1913.24037639 2600.45928312 1906.7673955 2620.10729313 C1906.0882691 2622.17268064 1905.41385385 2624.23956395 1904.73986864 2626.30663395 C1902.70432611 2632.51988313 1900.57313784 2638.6521391 1898.08508348 2644.69970036 C1896.4966548 2648.6484107 1895.07648332 2652.65629593 1893.63122606 2656.65917301 C1881.49171746 2690.25736295 1868.21062308 2723.39327914 1854.07922411 2756.20018864 C1853.72473192 2757.02454411 1853.37023973 2757.84889957 1853.00500536 2758.69823551 C1842.24163469 2783.71632111 1830.95944142 2808.4473676 1819.14422655 2832.98552799 C1818.09161928 2835.17441301 1817.04250706 2837.36493462 1815.99475145 2839.55614567 C1809.43599552 2853.27243744 1802.84253558 2866.95401065 1795.65734911 2880.35643864 C1793.6702848 2884.06604523 1791.73449133 2887.79963892 1789.81359911 2891.54393864 C1783.12886242 2904.56898192 1776.22669333 2917.41768661 1768.95813036 2930.12596989 C1766.59997592 2934.2563593 1764.34503863 2938.42285555 1762.14172411 2942.63768864 C1756.50594477 2953.37308018 1750.23492844 2963.75819802 1744.07922411 2974.20018864 C1743.43888231 2975.28976871 1742.79854052 2976.37934879 1742.13879442 2977.50194645 C1709.45245342 3033.10948219 1674.10063543 3087.08882192 1636.07922411 3139.20018864 C1635.52798876 3139.95622379 1634.97675341 3140.71225895 1634.40881395 3141.49120426 C1625.13530764 3154.19112004 1615.64582595 3166.72006171 1606.07922411 3179.20018864 C1605.12996937 3180.44104652 1604.18074653 3181.68192881 1603.23156786 3182.92284489 C1593.0659709 3196.19486919 1582.65839265 3209.25618294 1572.07922411 3222.20018864 C1571.25164598 3223.21339176 1570.42406786 3224.22659489 1569.57141161 3225.27050114 C1568.10776141 3227.06054023 1566.64296886 3228.84964604 1565.17688036 3230.63768864 C1563.76404817 3232.36360655 1562.35526702 3234.09284765 1560.95031786 3235.82518864 C1556.23188413 3241.63249169 1551.41041959 3247.33836488 1546.52356005 3253.00365543 C1543.45943693 3256.56367499 1540.46354183 3260.16670653 1537.51672411 3263.82518864 C1533.41621178 3268.87827008 1529.06337654 3273.65328211 1524.64172411 3278.42284489 C1521.98056066 3281.30712417 1519.39223403 3284.24355997 1516.82141161 3287.20800114 C1514.00337987 3290.43041411 1511.12370798 3293.59713843 1508.25500536 3296.77440739 C1506.40478848 3298.83721651 1504.57977602 3300.91731234 1502.76672411 3303.01268864 C1498.18622703 3308.26865073 1493.42224767 3313.35719312 1488.68176317 3318.46825504 C1487.0779261 3320.20159145 1485.48002037 3321.94020403 1483.88391161 3323.68065739 C1479.26079948 3328.71765086 1474.63053389 3333.72048583 1469.74281359 3338.50415897 C1468.14554683 3340.13257262 1466.68177271 3341.81596149 1465.21179247 3343.5593195 C1459.70682025 3349.8811975 1453.70046018 3355.72271291 1447.77063036 3361.64159489 C1446.47685977 3362.93604054 1445.18323754 3364.23063448 1443.88975573 3365.52536869 C1441.18915172 3368.22744014 1438.48676518 3370.92771244 1435.78308153 3373.62670231 C1432.33577862 3377.06830854 1428.89298561 3380.51438568 1425.45152426 3383.96183205 C1422.78432199 3386.63266575 1420.11472043 3389.30109108 1417.4444108 3391.96881771 C1416.17475191 3393.23781447 1414.90582168 3394.50754074 1413.63766718 3395.77804089 C1401.67843632 3407.75453978 1401.67843632 3407.75453978 1395.61912584 3412.88047123 C1393.30887918 3414.86038506 1391.20058461 3417.02149407 1389.07922411 3419.20018864 C1385.59456882 3422.7790238 1381.95547936 3426.08013953 1378.18469286 3429.34862614 C1374.73651426 3432.38097615 1371.41249203 3435.54269851 1368.07922411 3438.70018864 C1363.42516131 3443.10882235 1358.72004796 3447.43029704 1353.87854052 3451.63280582 C1351.64334998 3453.57987817 1349.45452408 3455.57513333 1347.26672411 3457.57518864 C1343.80392329 3460.7044169 1340.27243408 3463.70519213 1336.64172411 3466.63768864 C1332.83834908 3469.71355452 1329.17839759 3472.8877203 1325.57922411 3476.20018864 C1321.18543863 3480.23973682 1316.66083587 3484.04698483 1312.01672411 3487.79393864 C1308.71569108 3490.49797633 1305.49157198 3493.28130095 1302.26672411 3496.07518864 C1297.04874543 3500.58480884 1291.71161321 3504.8979673 1286.2618413 3509.12328434 C1282.25844253 3512.23896808 1278.36746042 3515.46073156 1274.51672411 3518.76268864 C1269.35191655 3523.18079574 1264.04643324 3527.37720272 1258.63391161 3531.48925114 C1255.32303644 3534.00476593 1252.04653704 3536.56269674 1248.77160692 3539.12474918 C1202.85473944 3575.02402377 1155.10204592 3608.68297083 1106.07922411 3640.20018864 C1105.19041552 3640.77253239 1104.30160692 3641.34487614 1103.38586473 3641.93456364 C1026.97074066 3691.07042908 946.84603303 3735.77728569 864.05279589 3773.30358219 C861.92920172 3774.26834478 859.80798277 3775.23819471 857.68713427 3776.2089777 C808.66939902 3798.63577313 758.81435095 3818.98580019 708.07922411 3837.20018864 C707.05731981 3837.56934391 706.03541552 3837.93849918 704.98254442 3838.31884098 C673.87970715 3849.50593497 642.53119724 3859.95187247 610.89172411 3869.51268864 C609.72183947 3869.86649601 608.55195482 3870.22030338 607.34661913 3870.58483219 C593.96881008 3874.6213235 580.5667624 3878.54626721 567.07922411 3882.20018864 C565.91366991 3882.51641178 564.74811571 3882.83263493 563.54724169 3883.15844059 C560.39237796 3884.01002135 557.23612707 3884.85620233 554.07922411 3885.70018864 C547.40172713 3887.48940918 540.72780007 3889.28600583 534.07482958 3891.16454411 C513.78560005 3896.88738688 493.27420471 3901.53936894 472.67472887 3905.98125553 C468.03788606 3906.98425861 463.41387387 3908.03453947 458.79382372 3909.11180973 C435.23195854 3914.5976657 411.45477679 3919.11397559 387.59216356 3923.07103825 C386.24665869 3923.29480223 384.9011997 3923.51884223 383.55578661 3923.74315739 C382.54405634 3923.91172749 382.54405634 3923.91172749 381.51188707 3924.08370304 C376.90994629 3924.86153098 372.32917466 3925.72473604 367.74905443 3926.62163639 C354.66391857 3929.17995166 341.52023522 3931.20847676 328.32922411 3933.13768864 C327.15159502 3933.31071507 325.97396593 3933.48374149 324.76065111 3933.66201115 C273.50712503 3941.17495091 222.04091589 3946.33097053 170.36438036 3949.90038395 C166.49715421 3950.16828382 162.63197538 3950.45976186 158.76672411 3950.75487614 C150.87603957 3951.33817222 142.98090595 3951.7984784 135.07922411 3952.20018864 C134.20129198 3952.24508427 133.32335985 3952.2899799 132.41882372 3952.336236 C62.51803661 3955.84335325 -7.79350943 3955.70637653 -77.64965773 3951.39940739 C-80.73604258 3951.21143933 -83.82278629 3951.03349769 -86.9100337 3950.86034489 C-166.382042 3946.38402083 -247.1415127 3937.74701446 -325.17810011 3921.75927067 C-328.09344373 3921.16499108 -331.01241963 3920.59028078 -333.93206739 3920.01757145 C-359.00838475 3915.09586879 -383.98692574 3909.79755494 -408.92077589 3904.20018864 C-410.1755171 3903.91933414 -411.43025831 3903.63847965 -412.72302198 3903.34911442 C-434.7014539 3898.41249753 -456.8400464 3893.42935186 -478.393188 3886.84789371 C-482.74750494 3885.52100806 -487.12022537 3884.38910886 -491.54577589 3883.32518864 C-499.22325994 3881.47483197 -506.74351697 3879.17133179 -514.28601027 3876.83739567 C-520.18087797 3875.01783614 -526.08837201 3873.30191501 -532.04577589 3871.70018864 C-539.42122464 3869.70518339 -546.6546112 3867.36721591 -553.8763423 3864.87401676 C-558.37597461 3863.3327363 -562.88999687 3861.90468306 -567.46166945 3860.59040165 C-579.59252768 3857.10097016 -591.53445431 3853.07629531 -603.48327589 3849.01268864 C-604.63062208 3848.62301914 -605.77796827 3848.23334965 -606.96008253 3847.83187199 C-669.38665695 3826.58378667 -730.70050225 3801.78979348 -790.48327589 3773.95018864 C-791.67380568 3773.39645573 -792.86433546 3772.84272282 -794.09094191 3772.27221012 C-804.97946472 3767.19939167 -815.81300736 3762.01450386 -826.62829542 3756.78759098 C-829.54332307 3755.38216982 -832.46130921 3753.98311396 -835.38091993 3752.58724308 C-854.15606581 3743.60995923 -872.59358364 3734.18319815 -890.79626417 3724.0917902 C-895.43443835 3721.53047826 -900.09492536 3719.08242908 -904.85827589 3716.76268864 C-912.64042939 3712.94019726 -920.10103334 3708.58256449 -927.60827589 3704.25096989 C-932.43237742 3701.46978111 -937.29350812 3698.76171517 -942.17077589 3696.07518864 C-950.85095499 3691.27612858 -959.4018596 3686.2790338 -967.92077589 3681.20018864 C-968.84245558 3680.65233707 -969.76413527 3680.10448551 -970.71374464 3679.54003239 C-1009.86162737 3656.25599756 -1048.30790387 3631.70116907 -1085.72692823 3605.72264957 C-1088.27511097 3603.95429129 -1090.82661553 3602.19076557 -1093.37780714 3600.42675114 C-1111.31257575 3588.00818741 -1128.94813015 3575.25235657 -1146.36657667 3562.12059879 C-1148.94046068 3560.18538835 -1151.52125676 3558.25977797 -1154.10436964 3556.33690739 C-1163.60519449 3549.25810859 -1172.96598032 3542.04998104 -1182.17810011 3534.60009098 C-1185.04979551 3532.29324012 -1187.95526881 3530.0299081 -1190.85827589 3527.76268864 C-1198.01780174 3522.15922746 -1205.07142449 3516.42835598 -1212.11218214 3510.67675114 C-1213.71313069 3509.36971323 -1215.31675565 3508.06595508 -1216.92077589 3506.76268864 C-1222.36135199 3502.33431274 -1227.73533585 3497.83433199 -1233.07897902 3493.29003239 C-1236.55357858 3490.34013454 -1240.06553283 3487.44336144 -1243.60827589 3484.57518864 C-1248.00879164 3480.99618741 -1252.2191011 3477.25226564 -1256.40905714 3473.43065739 C-1258.91536333 3471.20499512 -1261.49001982 3469.10497303 -1264.10827589 3467.01268864 C-1270.17828579 3462.10667211 -1275.81055065 3456.77015351 -1281.48718214 3451.41893864 C-1284.5438297 3448.5405476 -1287.66960747 3445.76071901 -1290.85046339 3443.02050114 C-1294.81595034 3439.53386544 -1298.66574247 3435.91856977 -1302.53796339 3432.32909489 C-1304.74299145 3430.28573508 -1306.95588972 3428.25165561 -1309.17858839 3426.22753239 C-1313.95492614 3421.8773363 -1318.67700573 3417.50752435 -1323.19862318 3412.88990116 C-1324.8109032 3411.30799166 -1326.47272968 3409.86283858 -1328.20178175 3408.410882 C-1335.01522919 3402.47796073 -1341.29513695 3395.96930022 -1347.67468214 3389.57909489 C-1349.10364916 3388.15080271 -1350.5327645 3386.72265891 -1351.9620204 3385.2946558 C-1354.94656276 3382.31158188 -1357.92930413 3379.32672202 -1360.91076612 3376.3405695 C-1364.71557664 3372.53006224 -1368.52485968 3368.72406278 -1372.33551073 3364.91939735 C-1375.28428178 3361.97425501 -1378.23064822 3359.02671631 -1381.17631292 3356.07846737 C-1382.57928147 3354.67483594 -1383.98298159 3353.27193531 -1385.3874526 3351.86980724 C-1398.63356029 3338.64095526 -1398.63356029 3338.64095526 -1403.68992567 3332.65122318 C-1405.32721475 3330.72104274 -1407.10084151 3328.95736666 -1408.92077589 3327.20018864 C-1411.48638427 3324.72304951 -1413.86561622 3322.14139618 -1416.20202589 3319.45018864 C-1419.83716126 3315.26474493 -1423.60883934 3311.22433609 -1427.42077589 3307.20018864 C-1431.8294096 3302.54612584 -1436.1508843 3297.84101249 -1440.35339308 3292.99950504 C-1442.30046543 3290.76431451 -1444.29572058 3288.5754886 -1446.29577589 3286.38768864 C-1449.42500416 3282.92488781 -1452.42577938 3279.3933986 -1455.35827589 3275.76268864 C-1458.43414177 3271.95931361 -1461.60830755 3268.29936212 -1464.92077589 3264.70018864 C-1468.98061234 3260.28378719 -1472.8140141 3255.73855342 -1476.58093214 3251.07128239 C-1479.10810913 3247.97032231 -1481.69692709 3244.9284377 -1484.29577589 3241.88768864 C-1488.59973297 3236.83897488 -1492.72360264 3231.67230136 -1496.79309034 3226.43358707 C-1499.92801551 3222.41562362 -1503.16657833 3218.50648824 -1506.48327589 3214.63768864 C-1510.90131962 3209.47282395 -1515.09778665 3204.16740213 -1519.20983839 3198.75487614 C-1521.72535318 3195.44400097 -1524.28328399 3192.16750157 -1526.84533644 3188.89257145 C-1539.86333361 3172.24193832 -1552.44433735 3155.25906764 -1564.92077589 3138.20018864 C-1565.45380323 3137.47154606 -1565.98683058 3136.74290348 -1566.53601027 3135.99218082 C-1602.55110661 3086.66523153 -1635.87549036 3035.26199372 -1666.88122511 2982.65819645 C-1668.54655232 2979.83302796 -1670.21805804 2977.01160158 -1671.89343214 2974.19237614 C-1677.05959074 2965.48396895 -1682.06188205 2956.68769829 -1687.02453566 2947.86180973 C-1690.08406908 2942.42554946 -1693.18427001 2937.0174487 -1696.34118605 2931.63720036 C-1700.83290424 2923.97559896 -1705.00589497 2916.24249333 -1708.90905714 2908.26659489 C-1711.07828574 2903.84516173 -1713.36765493 2899.49053757 -1715.67077589 2895.13768864 C-1716.08738478 2894.34902409 -1716.50399366 2893.56035954 -1716.93322706 2892.74779606 C-1717.80616436 2891.09543279 -1718.67929757 2889.44317301 -1719.55261183 2887.79100895 C-1732.43944165 2863.38789723 -1744.7679795 2838.80279054 -1756.2928462 2813.72509098 C-1757.87012265 2810.30986641 -1759.46584304 2806.90401107 -1761.06921339 2803.50096989 C-1783.72731361 2755.33319206 -1803.5552498 2705.91610849 -1821.90380812 2655.96465397 C-1822.86894515 2653.34108226 -1823.83875352 2650.71929563 -1824.81042433 2648.09813786 C-1839.52619307 2608.35952804 -1852.13589698 2567.89559818 -1863.92077589 2527.20018864 C-1864.23192335 2526.12591618 -1864.54307081 2525.05164371 -1864.86364698 2523.94481754 C-1866.34202312 2518.82527147 -1867.80043942 2513.70039841 -1869.24694777 2508.57177067 C-1869.96701217 2506.03745703 -1870.70044213 2503.50727418 -1871.43640089 2500.97753239 C-1874.30873532 2491.08302936 -1877.00458363 2481.16907801 -1879.45202589 2471.16112614 C-1880.58931141 2466.51287773 -1881.76604195 2461.87525807 -1882.95202589 2457.23925114 C-1888.079437 2437.13923498 -1892.70390411 2416.97214037 -1896.97546339 2396.67382145 C-1897.89016687 2392.33297939 -1898.8254699 2387.99675424 -1899.76452589 2383.66112614 C-1909.15849896 2340.19409821 -1916.16373792 2296.38282529 -1922.599792 2252.39055729 C-1922.8950349 2250.37584311 -1923.19270184 2248.36148456 -1923.49060011 2246.34716129 C-1929.79580301 2203.50138343 -1933.54810352 2160.36029092 -1936.92077589 2117.20018864 C-1936.98716261 2116.35557072 -1937.05354933 2115.5109528 -1937.12194777 2114.64074039 C-1937.82916424 2105.58632948 -1938.38164745 2096.53026593 -1938.8107295 2087.45824528 C-1938.92964124 2085.01827935 -1939.05932986 2082.57901505 -1939.18981886 2080.13964176 C-1944.00215627 1988.3902714 -1942.72686461 1895.41851769 -1934.17468214 1803.92595768 C-1933.92308045 1801.22492885 -1933.67699836 1798.52345049 -1933.43249464 1795.82177067 C-1932.35307857 1783.93813277 -1931.17673292 1772.06642913 -1929.92077589 1760.20018864 C-1929.7892613 1758.95184238 -1929.7892613 1758.95184238 -1929.65508986 1757.67827702 C-1925.51424913 1718.52276626 -1919.78317536 1679.57224119 -1913.54577589 1640.70018864 C-1913.42453352 1639.93869511 -1913.30329115 1639.17720158 -1913.17837477 1638.39263248 C-1912.8397146 1636.27554791 -1912.49483012 1634.15958944 -1912.14733839 1632.04393864 C-1911.9573628 1630.88055973 -1911.76738722 1629.71718082 -1911.5716548 1628.51854801 C-1910.88280262 1625.0065905 -1909.91964788 1621.63532768 -1908.92077589 1618.20018864 C-1908.61477761 1616.71148147 -1908.33644148 1615.21659326 -1908.09655714 1613.71581364 C-1907.95886915 1612.88170963 -1907.82118116 1612.04760563 -1907.67932081 1611.18822575 C-1907.53212599 1610.2846735 -1907.38493116 1609.38112125 -1907.23327589 1608.45018864 C-1903.19516773 1584.58828385 -1898.22908668 1560.92591555 -1892.61608839 1537.38768864 C-1890.89981248 1530.17736836 -1889.31233553 1522.9415633 -1887.73327589 1515.70018864 C-1886.03194164 1507.93923206 -1884.21103564 1500.3027116 -1881.91296339 1492.69628239 C-1880.61622403 1488.12706299 -1879.55570735 1483.51386357 -1878.48327589 1478.88768864 C-1876.80499288 1471.6805277 -1874.93652957 1464.57946972 -1872.7916255 1457.4980402 C-1871.25487527 1452.40617499 -1869.87259005 1447.28796401 -1868.54577589 1442.13768864 C-1863.04806916 1420.95458165 -1856.47895755 1400.07379321 -1849.92077589 1379.20018864 C-1849.44003614 1377.66104801 -1849.44003614 1377.66104801 -1848.94958448 1376.09081364 C-1830.35506022 1316.61980214 -1807.86858844 1258.68963238 -1783.92077589 1201.20018864 C-1783.45296705 1200.07674046 -1783.45296705 1200.07674046 -1782.97570753 1198.93059635 C-1781.21511156 1194.70469844 -1779.44648938 1190.48226325 -1777.67077589 1186.26268864 C-1777.27825636 1185.3260236 -1776.88573683 1184.38935856 -1776.48132277 1183.42430973 C-1773.16305763 1175.58825222 -1769.54813367 1167.89615722 -1765.92077589 1160.20018864 C-1765.27819442 1158.83283504 -1764.63578108 1157.46540243 -1763.9935298 1156.09789371 C-1729.47698719 1082.64552271 -1729.47698719 1082.64552271 -1712.74890089 1052.35643864 C-1710.0866543 1047.52909028 -1707.52582584 1042.65383036 -1704.98327589 1037.76268864 C-1699.75676322 1027.74924695 -1694.17918395 1017.94241671 -1688.58532667 1008.1308527 C-1686.95564079 1005.26157294 -1685.34001073 1002.38488296 -1683.72936964 999.50487614 C-1676.25323983 986.15325005 -1668.48001319 973.00108343 -1660.55700636 959.91014957 C-1659.16073333 957.59761144 -1657.77313169 955.28044797 -1656.39343214 952.95800114 C-1650.93572796 943.77196894 -1645.25512274 934.73520599 -1639.51989698 925.72020817 C-1637.94447727 923.23753912 -1636.37883493 920.74895412 -1634.81530714 918.25878239 C-1616.82263162 889.68346493 -1597.86727145 861.66170158 -1578.30114698 834.14208317 C-1577.01192473 832.32841606 -1575.72583189 830.51257108 -1574.44030714 828.69628239 C-1564.15882901 814.20046594 -1553.54817014 799.95146133 -1542.74914503 785.83788395 C-1539.20018009 781.19895053 -1535.67636007 776.54418923 -1532.19445753 771.85472965 C-1526.67707471 764.42723535 -1520.93518112 757.21798701 -1515.06921339 750.06346989 C-1512.15469376 746.50314941 -1509.31005794 742.89281165 -1506.48327589 739.26268864 C-1497.0467104 727.17604557 -1487.17939146 715.43339223 -1477.24304152 703.75634098 C-1475.44162419 701.636283 -1473.64746436 699.51013353 -1471.8529048 697.38427067 C-1469.5460097 694.65300556 -1467.23411236 691.92599886 -1464.92077589 689.20018864 C-1464.42932081 688.62091618 -1463.93786573 688.04164371 -1463.43151808 687.44481754 C-1457.44882915 680.40217312 -1451.3933527 673.45272478 -1445.14733839 666.64159489 C-1443.22944382 664.53864031 -1441.34701544 662.41349708 -1439.48327589 660.26268864 C-1436.09334225 656.36227087 -1432.60106739 652.55841542 -1429.10192823 648.75634098 C-1426.2476826 645.65347783 -1423.41740356 642.53160992 -1420.60827589 639.38768864 C-1415.75787241 633.98688476 -1410.80834671 628.68138416 -1405.84143019 623.38793278 C-1403.45048933 620.83790318 -1401.0679868 618.28067788 -1398.69641066 615.71263981 C-1386.53949969 602.60638753 -1373.87733335 590.0033306 -1361.22741652 577.37645817 C-1358.03256981 574.18736351 -1354.84231203 570.99372149 -1351.65331221 567.79878139 C-1349.16369847 565.30553968 -1346.67169049 562.81470196 -1344.17896986 560.32456684 C-1343.0014178 559.14767498 -1341.82458892 557.97005902 -1340.64854383 556.79166126 C-1335.06847 551.20285278 -1329.49942083 545.64788018 -1323.47351027 540.53273869 C-1321.33820926 538.70023243 -1319.37917774 536.718849 -1317.42077589 534.70018864 C-1314.11438511 531.29206276 -1310.62699851 528.17831027 -1307.04382277 525.06932926 C-1303.59113758 522.02956871 -1300.2600663 518.86338365 -1296.92077589 515.70018864 C-1292.27723152 511.30151868 -1287.58186693 506.99179697 -1282.7513423 502.79882145 C-1280.32993207 500.68420499 -1277.96957138 498.50654093 -1275.60827589 496.32518864 C-1271.09173752 492.20112187 -1266.42944573 488.32081999 -1261.67077589 484.48143864 C-1258.83978011 482.13299895 -1256.12693991 479.69108961 -1253.42077589 477.20018864 C-1249.02699041 473.16064046 -1244.50238765 469.35339245 -1239.85827589 465.60643864 C-1236.55724148 462.90239981 -1233.33315404 460.11904299 -1230.10827589 457.32518864 C-1224.86472213 452.79434394 -1219.50361553 448.45467566 -1214.03088331 444.20458317 C-1210.26438556 441.27432284 -1206.57398707 438.2719869 -1202.92077589 435.20018864 C-1197.01026696 430.24097534 -1190.97151846 425.46700347 -1184.88366652 420.72899723 C-1182.78410366 419.09374069 -1180.68828729 417.4537547 -1178.59265089 415.81346989 C-1169.37190043 408.60664145 -1160.07588886 401.51208437 -1150.69030714 394.5214777 C-1148.13397024 392.61268971 -1145.5913213 390.68583421 -1143.04577589 388.76268864 C-1135.86173759 383.37465991 -1128.56561196 378.14255831 -1121.27624464 372.89843082 C-1118.95600578 371.22558862 -1116.64072097 369.54612948 -1114.32702589 367.86425114 C-1113.56728468 367.31285465 -1112.80754347 366.76145817 -1112.0247798 366.1933527 C-1110.61973342 365.17334751 -1109.21562876 364.15204266 -1107.81286573 363.12889957 C-1094.19258554 353.25608495 -1080.160678 343.94175949 -1066.22106886 334.52953434 C-1064.35337598 333.26774252 -1062.48651393 332.00472005 -1060.62048292 330.74047184 C-1049.18798841 322.99507188 -1037.67681744 315.44443827 -1025.92077589 308.20018864 C-1024.28182409 307.16726504 -1022.64472476 306.1313878 -1021.01061964 305.09081364 C-1008.74918349 297.29134962 -996.35839554 289.71494624 -983.92077589 282.20018864 C-982.64267042 281.42675114 -982.64267042 281.42675114 -981.33874464 280.63768864 C-919.6003203 243.30295644 -855.60254101 208.74947914 -789.80853224 179.05388737 C-787.78497658 178.13877621 -785.76361116 177.21894695 -783.74255323 176.29833317 C-746.4795457 159.33607492 -708.72714612 143.6757012 -670.518188 128.97411442 C-667.37222521 127.76267783 -664.230236 126.54159526 -661.09094191 125.31298161 C-653.42917717 122.31473584 -645.77541911 119.34645527 -637.98327589 116.70018864 C-636.05987677 116.03937623 -634.13672351 115.377848 -632.21374464 114.71581364 C-631.10950148 114.33618473 -630.00525831 113.95655582 -628.86755323 113.56542301 C-624.02118154 111.89324512 -619.18438277 110.19376984 -614.34655714 108.49706364 C-611.46051572 107.4859732 -608.57441964 106.47503888 -605.6883235 105.46410465 C-603.78061678 104.79540195 -601.87316052 104.12598426 -599.96597242 103.45580387 C-590.82968916 100.24642267 -581.70742275 97.04420533 -572.43054152 94.26024723 C-567.84860173 92.87635863 -563.2861661 91.43300218 -558.72155714 89.99315739 C-540.44459499 84.24554576 -522.20404179 78.52981745 -503.65515089 73.71581364 C-497.51483197 72.11857213 -491.43928218 70.32061987 -485.35827589 68.51268864 C-476.5807745 65.91457662 -467.78825641 63.64910634 -458.85925245 61.64305973 C-451.22335697 59.89853651 -443.63061489 57.93776128 -436.06921339 55.89550114 C-382.24963395 41.42599125 -326.71605351 31.00823274 -271.58215284 23.05590153 C-264.29808061 22.00342118 -257.02916328 20.90671654 -249.77185011 19.68041325 C-233.28154867 16.90284663 -216.67565778 15.05359774 -200.06675673 13.14742374 C-195.36724924 12.60670472 -190.67037833 12.04957462 -185.97570753 11.46825504 C-170.79217583 9.59306354 -155.59865013 8.03479506 -140.35827589 6.70018864 C-139.15275068 6.5938007 -137.94722548 6.48741276 -136.7051692 6.37780094 C-109.14677185 3.96664649 -81.55395036 2.43822791 -53.92077589 1.20018864 C-52.93596015 1.15500347 -51.95114441 1.10981831 -50.93648577 1.06326389 C-33.95459092 0.29490945 -16.99827715 0.02343146 0 0 Z " fill="#020202" transform="translate(2436.9207758903503,562.7998113632202)"/>
<path d="M0 0 C0.9101549 -0.00085442 1.82030979 -0.00170885 2.75804514 -0.00258917 C5.78422814 -0.00422613 8.81035476 0.001248 11.83653259 0.00672913 C14.01517231 0.00701141 16.19381212 0.00685246 18.37245178 0.00628662 C24.27049943 0.00600025 30.16852665 0.01187108 36.06656957 0.01886058 C42.23650715 0.0251208 48.40644523 0.02570003 54.5763855 0.02688599 C66.2527347 0.02999143 77.92907451 0.03819422 89.60541958 0.04823548 C102.90162597 0.05942104 116.19783146 0.06491322 129.49404156 0.06993091 C156.83859781 0.08037749 184.18314573 0.0979617 211.5276947 0.12025452 C211.52916126 0.88996267 211.53062782 1.65967083 211.53213882 2.45270348 C211.56942178 21.30539696 211.62871622 40.15790842 211.71159744 59.01045799 C211.75116652 68.1279512 211.78367007 77.24536086 211.7986908 86.3629303 C211.81182348 94.32300978 211.83907772 102.28290371 211.88230777 110.24287856 C211.90466567 114.4456733 211.92062119 118.64824145 211.91957855 122.85110092 C211.92098128 178.19051595 226.3704644 228.76175689 264.5276947 270.12025452 C265.06233337 270.70017151 265.59697205 271.2800885 266.14781189 271.87757874 C298.74103755 306.77138943 346.16817557 329.38840592 393.92955017 331.25306702 C417.47757826 331.9950293 441.06126015 330.61021351 463.49546814 322.82533264 C465.64639093 322.07907303 467.80900084 321.37446752 469.9730072 320.66712952 C488.53070576 314.40114731 506.1372698 305.25578538 521.5276947 293.12025452 C522.47386658 292.38291077 523.42003845 291.64556702 524.3948822 290.88587952 C558.90786523 263.31460129 582.10040038 227.62534677 593.6526947 184.99525452 C593.89471619 184.12014221 594.13673767 183.24502991 594.38609314 182.34339905 C609.71689638 123.53326016 600.13047745 60.89449398 600.5276947 0.12025452 C898.8476947 0.12025452 1197.1676947 0.12025452 1504.5276947 0.12025452 C1504.8576947 50.61025452 1505.1876947 101.10025452 1505.5276947 153.12025452 C1509.01201913 176.7053439 1509.01201913 176.7053439 1515.5276947 199.12025452 C1515.79920349 199.86291565 1516.07071228 200.60557678 1516.35044861 201.3707428 C1523.29578898 220.29689118 1532.13276927 238.16906692 1544.5276947 254.12025452 C1545.19285095 254.99552795 1545.8580072 255.87080139 1546.5433197 256.77259827 C1563.52999083 278.62740076 1584.24124701 296.32123336 1608.77574158 309.19740295 C1610.33424946 310.0183561 1611.87750341 310.8681215 1613.4183197 311.72181702 C1626.51536696 318.71938227 1641.0028713 323.51149108 1655.4026947 326.99525452 C1656.18443054 327.18611633 1656.96616638 327.37697815 1657.77159119 327.57362366 C1671.03246627 330.58429656 1684.28838739 331.47565746 1697.8401947 331.37025452 C1698.55659119 331.36715271 1699.27298767 331.3640509 1700.01109314 331.3608551 C1753.4883456 331.09037767 1801.81676323 309.3846246 1839.43199158 271.51649475 C1865.57073105 244.56365767 1884.71012157 207.54962344 1890.19771767 170.34630013 C1890.45186999 168.63177272 1890.72787114 166.92047403 1891.01311302 165.21084404 C1892.43405084 156.23532638 1892.83357083 147.467799 1892.84654236 138.3941803 C1892.85586781 136.87488792 1892.86604024 135.35560055 1892.87698364 133.83631897 C1892.90400329 129.75877617 1892.9193486 125.68126733 1892.93241167 121.60365915 C1892.9481666 117.32488059 1892.97491657 113.04617021 1893.0004425 108.7674408 C1893.04701343 100.68600921 1893.08386166 92.60456448 1893.11711538 84.52306831 C1893.15549111 75.31368659 1893.20486017 66.10437373 1893.25509953 56.89505029 C1893.35809637 37.97016892 1893.44746043 19.0452454 1893.5276947 0.12025452 C1919.30305148 0.04988057 1945.07839366 -0.00287177 1970.85382748 -0.035182 C1982.82433235 -0.05058921 1994.79477721 -0.07155982 2006.76524353 -0.10606384 C2017.21011559 -0.13615586 2027.65494413 -0.15536502 2038.09985834 -0.16201097 C2043.61998136 -0.16589 2049.13998001 -0.17487483 2054.66006279 -0.19693565 C2111.43352106 -0.41481257 2164.766203 8.11024068 2212.5276947 41.12025452 C2213.12001892 41.52163635 2213.71234314 41.92301819 2214.32261658 42.33656311 C2223.20825698 48.37430316 2231.49098568 54.99813466 2239.5276947 62.12025452 C2240.06781189 62.59720764 2240.60792908 63.07416077 2241.16441345 63.56556702 C2263.4311182 83.34644012 2281.38675494 106.93359571 2295.5276947 133.12025452 C2295.84415955 133.69727112 2296.16062439 134.27428772 2296.48667908 134.86878967 C2317.61889402 173.73620528 2324.87400696 216.2839346 2324.78251202 260.04960253 C2324.77709323 263.72197634 2324.78342949 267.39433458 2324.78818572 271.06670675 C2324.79494469 277.51499559 2324.79432874 283.96325058 2324.78881863 290.41154013 C2324.78060711 300.06491474 2324.78399554 309.71826206 2324.78958391 319.37163732 C2324.79877161 335.82677706 2324.79848989 352.28190443 2324.79302216 368.73704529 C2324.78751628 385.40860431 2324.78636167 402.08015519 2324.79049683 418.75171471 C2324.79075517 419.80539052 2324.79101352 420.85906633 2324.79127969 421.94467171 C2324.79234625 426.23625763 2324.79344367 430.52784354 2324.79458024 434.81942945 C2324.80515528 474.77805678 2324.80587789 514.73667865 2324.80028534 554.69530678 C2324.80011975 555.87901684 2324.79995416 557.0627269 2324.79978355 558.28230696 C2324.79961769 559.46791408 2324.79945183 560.65352121 2324.79928095 561.87505582 C2324.7942349 597.99312755 2324.79293165 634.11119702 2324.79532623 670.22926903 C2324.79548119 672.64776283 2324.7956355 675.06625662 2324.79578917 677.48475042 C2324.79641011 687.20367211 2324.79704744 696.9225938 2324.7977087 706.64151549 C2324.79954274 733.81033275 2324.80068393 760.97915002 2324.80128098 788.14796734 C2324.80130827 789.38518864 2324.80133556 790.62240995 2324.80136368 791.89712281 C2324.80218227 831.32215404 2324.79992829 870.74718448 2324.79558182 910.17221546 C2324.79544132 911.45097962 2324.79530082 912.72974377 2324.79515607 914.04725835 C2324.79286616 934.81361287 2324.79042724 955.57996737 2324.78797572 976.34632187 C2324.77826393 1058.70073714 2324.77871302 1141.05514591 2324.78843689 1223.40956116 C2324.79087928 1244.16186173 2324.79330138 1264.91416231 2324.79558182 1285.6664629 C2324.79579316 1287.5831643 2324.79579316 1287.5831643 2324.79600878 1289.53858695 C2324.80032138 1328.91977883 2324.80214965 1368.30097017 2324.80128098 1407.68216228 C2324.80124022 1409.53669251 2324.80124022 1409.53669251 2324.80119865 1411.428688 C2324.80057368 1438.56915288 2324.79930638 1465.7096177 2324.79745997 1492.85008252 C2324.79680169 1502.56126769 2324.79617553 1512.27245287 2324.79555855 1521.98363804 C2324.79540377 1524.39952537 2324.79524631 1526.81541269 2324.79508615 1529.23130001 C2324.79269919 1565.33755723 2324.79473144 1601.4438119 2324.79978355 1637.5500688 C2324.80003194 1639.32526131 2324.80003194 1639.32526131 2324.80028534 1641.1363163 C2324.8004507 1642.31759451 2324.80061607 1643.49887272 2324.80078644 1644.71594724 C2324.80630348 1684.5625307 2324.8042725 1724.40910761 2324.79372385 1764.25569014 C2324.79261915 1768.5353238 2324.79154574 1772.81495747 2324.79049683 1777.09459114 C2324.79023641 1778.14488245 2324.789976 1779.19517376 2324.78970769 1780.27729207 C2324.78576424 1796.90207051 2324.78850798 1813.52684079 2324.79403484 1830.15161849 C2324.79932786 1846.50206791 2324.79746377 1862.8525036 2324.78800666 1879.20295128 C2324.78267518 1888.78583454 2324.7827707 1898.36868012 2324.79096986 1907.95156156 C2324.79587141 1914.32268694 2324.79347163 1920.6937831 2324.78523615 1927.06490496 C2324.78077418 1930.67207905 2324.77930444 1934.27917836 2324.78686918 1937.88634899 C2324.8243555 1957.0884762 2324.11379032 1975.86716726 2320.7151947 1994.80775452 C2320.54415222 1995.76850891 2320.37310974 1996.72926331 2320.19688416 1997.71913147 C2318.5842361 2006.40890975 2316.30662097 2014.7394872 2313.5276947 2023.12025452 C2313.28712341 2023.87274475 2313.04655212 2024.62523499 2312.7986908 2025.40052795 C2302.02158106 2059.01402134 2284.84225998 2090.37831598 2260.5276947 2116.12025452 C2259.41841605 2117.40753369 2258.31413379 2118.69913736 2257.2151947 2119.99525452 C2249.09519477 2129.27793343 2240.24295708 2137.53399554 2230.5276947 2145.12025452 C2229.56734314 2145.8975592 2228.60699158 2146.67486389 2227.61753845 2147.47572327 C2186.36807848 2180.27712696 2134.25107265 2199.33143204 2081.55067241 2199.24905568 C2080.05980345 2199.25042679 2078.56893484 2199.25223444 2077.07806687 2199.2544345 C2072.98751859 2199.25921041 2068.89699251 2199.25780694 2064.80644303 2199.2553768 C2060.33724314 2199.25383014 2055.86804805 2199.2580956 2051.39884979 2199.26160356 C2043.53788972 2199.26697114 2035.67693563 2199.26862136 2027.81597386 2199.26785282 C2016.0475981 2199.26671658 2004.27922929 2199.27130107 1992.51085509 2199.27698366 C1972.45382864 2199.28649242 1952.39680357 2199.29120217 1932.33977509 2199.293293 C1912.01044485 2199.29542152 1891.68111677 2199.29968149 1871.35178757 2199.30653572 C1870.06830046 2199.30696633 1868.78481336 2199.30739695 1867.4624327 2199.30784061 C1862.23505827 2199.30959896 1857.00768384 2199.31136861 1851.78030941 2199.31315363 C1789.1449878 2199.33450044 1726.50966585 2199.34542783 1663.87434142 2199.35431587 C1642.58837036 2199.35734001 1621.30239941 2199.36080077 1600.01642847 2199.36459708 C1599.29168838 2199.3647262 1598.56694829 2199.36485531 1597.82024637 2199.36498834 C1591.22293404 2199.36616386 1584.62562172 2199.36734304 1578.02830939 2199.3685256 C1503.4791844 2199.3818807 1428.93005907 2199.39427374 1277.06416706 2199.40928464 C1269.97338721 2199.40980909 1262.88260736 2199.41034641 1255.7918275 2199.4108831 C1253.4238351 2199.41106231 1251.05584269 2199.41124127 1248.68785028 2199.41142019 C1233.64485379 2199.41255725 1218.60185729 2199.41370333 1203.5588608 2199.41486839 C1199.59004783 2199.4151757 1195.62123486 2199.41548163 1191.65242189 2199.41578429 C1116.7023561 2199.42150353 1041.7522937 2199.43074444 966.80223083 2199.45320129 C965.61886688 2199.45355564 965.61886688 2199.45355564 964.41159659 2199.45391714 C938.96938889 2199.46154503 913.52718132 2199.46959384 888.08497376 2199.4777024 C863.58617435 2199.48551017 839.08737491 2199.49323366 814.58857536 2199.50059223 C813.4204009 2199.50094337 813.4204009 2199.50094337 812.22862695 2199.50130159 C763.44368889 2199.5159418 714.65875175 2199.5257411 665.87381172 2199.53046703 C664.7433429 2199.53057743 664.7433429 2199.53057743 663.59003632 2199.53069005 C630.48929783 2199.53391626 597.38855935 2199.53608451 564.28782071 2199.53707305 C550.97067018 2199.53747385 537.65351966 2199.53800724 524.33636914 2199.53860448 C522.12836319 2199.53870195 519.92035724 2199.53879433 517.7123513 2199.53888586 C483.95332691 2199.54031393 450.19430687 2199.54487596 416.43528509 2199.55876184 C415.3439083 2199.55921044 415.3439083 2199.55921044 414.2304835 2199.55966811 C402.52704145 2199.5644964 390.82359951 2199.56957839 379.12015758 2199.57469411 C345.88140598 2199.58921812 312.64265952 2199.60172957 279.4039042 2199.59997594 C278.39138876 2199.5999238 278.39138876 2199.5999238 277.35841846 2199.5998706 C263.28670505 2199.5991064 249.21499193 2199.59741289 235.14327877 2199.59456925 C228.60992477 2199.59325082 222.07657075 2199.59207277 215.54321671 2199.59097862 C214.26251679 2199.59075877 212.98181687 2199.59053893 211.66230786 2199.59031242 C191.39482636 2199.58719978 171.12737491 2199.59751804 150.85990037 2199.61345417 C130.92386009 2199.62885053 110.98786133 2199.62994689 91.05181959 2199.61590594 C79.36902181 2199.60810503 67.68635102 2199.61118284 56.00356597 2199.6305431 C48.23418424 2199.64231852 40.46489483 2199.63945052 32.69551803 2199.62492846 C28.29793458 2199.61711146 23.90059867 2199.61525509 19.50303281 2199.63154749 C-40.697449 2199.83988443 -96.41870155 2182.46330464 -143.4723053 2144.12025452 C-144.40163879 2143.36446106 -144.40163879 2143.36446106 -145.3497467 2142.59339905 C-157.98012532 2132.23493801 -169.39709178 2120.99609556 -179.4723053 2108.12025452 C-180.34040242 2107.05246839 -181.2102741 2105.98612312 -182.0816803 2104.92103577 C-209.36207059 2071.33096148 -228.03992278 2028.97568636 -234.0973053 1986.05775452 C-234.21847717 1985.25015686 -234.33964905 1984.4425592 -234.4644928 1983.61048889 C-235.97021447 1973.29138546 -236.62018377 1963.11104507 -236.5999558 1952.68476576 C-236.60160658 1951.47188311 -236.60325735 1950.25900047 -236.60495816 1949.00936381 C-236.6085198 1945.65321957 -236.6076394 1942.29713072 -236.60485637 1938.94098936 C-236.60292633 1935.27217123 -236.60682101 1931.60335834 -236.60995317 1927.93454167 C-236.6146594 1921.48315432 -236.61565335 1915.03177464 -236.61422482 1908.58038586 C-236.61210196 1898.92218284 -236.61571949 1889.26398776 -236.62043959 1879.60578597 C-236.62831056 1863.1445474 -236.63140152 1846.683311 -236.63188553 1830.22207069 C-236.6323879 1813.53831247 -236.63503463 1796.85455668 -236.64029312 1780.17079926 C-236.64062325 1779.11728854 -236.64095339 1778.06377782 -236.64129353 1776.97834254 C-236.64264352 1772.68757319 -236.64400619 1768.39680384 -236.64538563 1764.1060345 C-236.66168926 1713.30302344 -236.66807445 1662.50001285 -236.6728335 1611.69699962 C-236.6752167 1586.39913815 -236.67892017 1561.10127695 -236.6828706 1535.80341568 C-236.69553539 1454.65464196 -236.70631908 1373.50586825 -236.70971106 1292.35709356 C-236.7098733 1288.47848247 -236.71003886 1284.59987138 -236.71020544 1280.7212603 C-236.71053924 1272.9426514 -236.71086972 1265.16404251 -236.7112 1257.38543361 C-236.7115869 1248.27858306 -236.7119765 1239.1717325 -236.71237106 1230.06488195 C-236.71248348 1227.45842781 -236.7125949 1224.85197367 -236.71270532 1222.24551953 C-236.71625447 1138.54188917 -236.73133153 1054.8382674 -236.75464306 971.13464031 C-236.77138671 910.9896148 -236.7868606 850.8445909 -236.79137802 790.69956303 C-236.79147151 789.4624121 -236.79156499 788.22526117 -236.79166131 786.95062083 C-236.79368046 759.79070383 -236.79483642 732.63078686 -236.7951899 705.4708698 C-236.79532607 695.75216118 -236.79553506 686.03345256 -236.79578315 676.31474395 C-236.79584471 673.89698553 -236.79590303 671.4792271 -236.7959581 669.06146868 C-236.79687757 630.54995996 -236.80684169 592.03846021 -236.82141559 553.52695444 C-236.83603873 514.73000541 -236.84106898 475.93306738 -236.83299604 437.13611608 C-236.83188072 431.77098597 -236.83087004 426.40585585 -236.82992172 421.04072571 C-236.82973175 419.98904541 -236.82954179 418.93736512 -236.82934606 417.85381573 C-236.82661594 401.22370667 -236.83394305 384.59361799 -236.84549509 367.96351336 C-236.8566533 351.59755751 -236.85704972 335.23163038 -236.84612491 318.86567408 C-236.84004548 309.28016984 -236.84207767 299.69475244 -236.85637688 290.10925646 C-236.86506628 283.72870031 -236.86270578 277.34820751 -236.85167817 270.96765519 C-236.84574306 267.35998372 -236.84418368 263.75248142 -236.85636303 260.14482174 C-236.92979786 236.85187126 -235.57247528 213.94321161 -229.7848053 191.30775452 C-229.61178894 190.61689758 -229.43877258 189.92604065 -229.26051331 189.21424866 C-226.22723201 177.13763995 -222.55439617 165.50169091 -217.4723053 154.12025452 C-217.02870667 153.12590393 -216.58510803 152.13155334 -216.12806702 151.10707092 C-204.81047548 126.08257592 -190.87434998 102.57743618 -171.8394928 82.60462952 C-169.85308467 80.51988435 -167.9981099 78.39603667 -166.1598053 76.18275452 C-126.69588392 31.02781847 -59.85954738 -0.20914564 0 0 Z " fill="#020202" transform="translate(1429.4723052978516,1597.8797454833984)"/>
<path d="M0 0 C0.9101549 -0.00085442 1.82030979 -0.00170885 2.75804514 -0.00258917 C5.78422814 -0.00422613 8.81035476 0.001248 11.83653259 0.00672913 C14.01517231 0.00701141 16.19381212 0.00685246 18.37245178 0.00628662 C24.27049943 0.00600025 30.16852665 0.01187108 36.06656957 0.01886058 C42.23650715 0.0251208 48.40644523 0.02570003 54.5763855 0.02688599 C66.2527347 0.02999143 77.92907451 0.03819422 89.60541958 0.04823548 C102.90162597 0.05942104 116.19783146 0.06491322 129.49404156 0.06993091 C156.83859781 0.08037749 184.18314573 0.0979617 211.5276947 0.12025452 C211.52916126 0.88996267 211.53062782 1.65967083 211.53213882 2.45270348 C211.56942178 21.30539696 211.62871622 40.15790842 211.71159744 59.01045799 C211.75116652 68.1279512 211.78367007 77.24536086 211.7986908 86.3629303 C211.81182348 94.32300978 211.83907772 102.28290371 211.88230777 110.24287856 C211.90466567 114.4456733 211.92062119 118.64824145 211.91957855 122.85110092 C211.92098128 178.19051595 226.3704644 228.76175689 264.5276947 270.12025452 C265.06233337 270.70017151 265.59697205 271.2800885 266.14781189 271.87757874 C298.74103755 306.77138943 346.16817557 329.38840592 393.92955017 331.25306702 C417.47757826 331.9950293 441.06126015 330.61021351 463.49546814 322.82533264 C465.64639093 322.07907303 467.80900084 321.37446752 469.9730072 320.66712952 C488.53070576 314.40114731 506.1372698 305.25578538 521.5276947 293.12025452 C522.47386658 292.38291077 523.42003845 291.64556702 524.3948822 290.88587952 C558.90786523 263.31460129 582.10040038 227.62534677 593.6526947 184.99525452 C593.89471619 184.12014221 594.13673767 183.24502991 594.38609314 182.34339905 C609.71689638 123.53326016 600.13047745 60.89449398 600.5276947 0.12025452 C898.8476947 0.12025452 1197.1676947 0.12025452 1504.5276947 0.12025452 C1504.8576947 50.61025452 1505.1876947 101.10025452 1505.5276947 153.12025452 C1509.01201913 176.7053439 1509.01201913 176.7053439 1515.5276947 199.12025452 C1515.79920349 199.86291565 1516.07071228 200.60557678 1516.35044861 201.3707428 C1523.29578898 220.29689118 1532.13276927 238.16906692 1544.5276947 254.12025452 C1545.19285095 254.99552795 1545.8580072 255.87080139 1546.5433197 256.77259827 C1563.52999083 278.62740076 1584.24124701 296.32123336 1608.77574158 309.19740295 C1610.33424946 310.0183561 1611.87750341 310.8681215 1613.4183197 311.72181702 C1626.51536696 318.71938227 1641.0028713 323.51149108 1655.4026947 326.99525452 C1656.18443054 327.18611633 1656.96616638 327.37697815 1657.77159119 327.57362366 C1671.03246627 330.58429656 1684.28838739 331.47565746 1697.8401947 331.37025452 C1698.55659119 331.36715271 1699.27298767 331.3640509 1700.01109314 331.3608551 C1753.4883456 331.09037767 1801.81676323 309.3846246 1839.43199158 271.51649475 C1865.57073105 244.56365767 1884.71012157 207.54962344 1890.19771767 170.34630013 C1890.45186999 168.63177272 1890.72787114 166.92047403 1891.01311302 165.21084404 C1892.43405084 156.23532638 1892.83357083 147.467799 1892.84654236 138.3941803 C1892.85586781 136.87488792 1892.86604024 135.35560055 1892.87698364 133.83631897 C1892.90400329 129.75877617 1892.9193486 125.68126733 1892.93241167 121.60365915 C1892.9481666 117.32488059 1892.97491657 113.04617021 1893.0004425 108.7674408 C1893.04701343 100.68600921 1893.08386166 92.60456448 1893.11711538 84.52306831 C1893.15549111 75.31368659 1893.20486017 66.10437373 1893.25509953 56.89505029 C1893.35809637 37.97016892 1893.44746043 19.0452454 1893.5276947 0.12025452 C1919.30305148 0.04988057 1945.07839366 -0.00287177 1970.85382748 -0.035182 C1982.82433235 -0.05058921 1994.79477721 -0.07155982 2006.76524353 -0.10606384 C2017.21011559 -0.13615586 2027.65494413 -0.15536502 2038.09985834 -0.16201097 C2043.61998136 -0.16589 2049.13998001 -0.17487483 2054.66006279 -0.19693565 C2111.43352106 -0.41481257 2164.766203 8.11024068 2212.5276947 41.12025452 C2213.12001892 41.52163635 2213.71234314 41.92301819 2214.32261658 42.33656311 C2223.20825698 48.37430316 2231.49098568 54.99813466 2239.5276947 62.12025452 C2240.06781189 62.59720764 2240.60792908 63.07416077 2241.16441345 63.56556702 C2263.4311182 83.34644012 2281.38675494 106.93359571 2295.5276947 133.12025452 C2295.84415955 133.69727112 2296.16062439 134.27428772 2296.48667908 134.86878967 C2317.61889402 173.73620528 2324.87400696 216.2839346 2324.78251202 260.04960253 C2324.77709323 263.72197634 2324.78342949 267.39433458 2324.78818572 271.06670675 C2324.79494469 277.51499559 2324.79432874 283.96325058 2324.78881863 290.41154013 C2324.78060711 300.06491474 2324.78399554 309.71826206 2324.78958391 319.37163732 C2324.79877161 335.82677706 2324.79848989 352.28190443 2324.79302216 368.73704529 C2324.78751628 385.40860431 2324.78636167 402.08015519 2324.79049683 418.75171471 C2324.79075517 419.80539052 2324.79101352 420.85906633 2324.79127969 421.94467171 C2324.79234625 426.23625763 2324.79344367 430.52784354 2324.79458024 434.81942945 C2324.80515528 474.77805678 2324.80587789 514.73667865 2324.80028534 554.69530678 C2324.80011975 555.87901684 2324.79995416 557.0627269 2324.79978355 558.28230696 C2324.79961769 559.46791408 2324.79945183 560.65352121 2324.79928095 561.87505582 C2324.7942349 597.99312755 2324.79293165 634.11119702 2324.79532623 670.22926903 C2324.79548119 672.64776283 2324.7956355 675.06625662 2324.79578917 677.48475042 C2324.79641011 687.20367211 2324.79704744 696.9225938 2324.7977087 706.64151549 C2324.79954274 733.81033275 2324.80068393 760.97915002 2324.80128098 788.14796734 C2324.80130827 789.38518864 2324.80133556 790.62240995 2324.80136368 791.89712281 C2324.80218227 831.32215404 2324.79992829 870.74718448 2324.79558182 910.17221546 C2324.79544132 911.45097962 2324.79530082 912.72974377 2324.79515607 914.04725835 C2324.79286616 934.81361287 2324.79042724 955.57996737 2324.78797572 976.34632187 C2324.77826393 1058.70073714 2324.77871302 1141.05514591 2324.78843689 1223.40956116 C2324.79087928 1244.16186173 2324.79330138 1264.91416231 2324.79558182 1285.6664629 C2324.79579316 1287.5831643 2324.79579316 1287.5831643 2324.79600878 1289.53858695 C2324.80032138 1328.91977883 2324.80214965 1368.30097017 2324.80128098 1407.68216228 C2324.80124022 1409.53669251 2324.80124022 1409.53669251 2324.80119865 1411.428688 C2324.80057368 1438.56915288 2324.79930638 1465.7096177 2324.79745997 1492.85008252 C2324.79680169 1502.56126769 2324.79617553 1512.27245287 2324.79555855 1521.98363804 C2324.79540377 1524.39952537 2324.79524631 1526.81541269 2324.79508615 1529.23130001 C2324.79269919 1565.33755723 2324.79473144 1601.4438119 2324.79978355 1637.5500688 C2324.80003194 1639.32526131 2324.80003194 1639.32526131 2324.80028534 1641.1363163 C2324.8004507 1642.31759451 2324.80061607 1643.49887272 2324.80078644 1644.71594724 C2324.80630348 1684.5625307 2324.8042725 1724.40910761 2324.79372385 1764.25569014 C2324.79261915 1768.5353238 2324.79154574 1772.81495747 2324.79049683 1777.09459114 C2324.79023641 1778.14488245 2324.789976 1779.19517376 2324.78970769 1780.27729207 C2324.78576424 1796.90207051 2324.78850798 1813.52684079 2324.79403484 1830.15161849 C2324.79932786 1846.50206791 2324.79746377 1862.8525036 2324.78800666 1879.20295128 C2324.78267518 1888.78583454 2324.7827707 1898.36868012 2324.79096986 1907.95156156 C2324.79587141 1914.32268694 2324.79347163 1920.6937831 2324.78523615 1927.06490496 C2324.78077418 1930.67207905 2324.77930444 1934.27917836 2324.78686918 1937.88634899 C2324.8243555 1957.0884762 2324.11379032 1975.86716726 2320.7151947 1994.80775452 C2320.54415222 1995.76850891 2320.37310974 1996.72926331 2320.19688416 1997.71913147 C2318.5842361 2006.40890975 2316.30662097 2014.7394872 2313.5276947 2023.12025452 C2313.28712341 2023.87274475 2313.04655212 2024.62523499 2312.7986908 2025.40052795 C2302.02158106 2059.01402134 2284.84225998 2090.37831598 2260.5276947 2116.12025452 C2259.41841605 2117.40753369 2258.31413379 2118.69913736 2257.2151947 2119.99525452 C2249.09519477 2129.27793343 2240.24295708 2137.53399554 2230.5276947 2145.12025452 C2229.56734314 2145.8975592 2228.60699158 2146.67486389 2227.61753845 2147.47572327 C2186.36807848 2180.27712696 2134.25107265 2199.33143204 2081.55067241 2199.24905568 C2080.05980345 2199.25042679 2078.56893484 2199.25223444 2077.07806687 2199.2544345 C2072.98751859 2199.25921041 2068.89699251 2199.25780694 2064.80644303 2199.2553768 C2060.33724314 2199.25383014 2055.86804805 2199.2580956 2051.39884979 2199.26160356 C2043.53788972 2199.26697114 2035.67693563 2199.26862136 2027.81597386 2199.26785282 C2016.0475981 2199.26671658 2004.27922929 2199.27130107 1992.51085509 2199.27698366 C1972.45382864 2199.28649242 1952.39680357 2199.29120217 1932.33977509 2199.293293 C1912.01044485 2199.29542152 1891.68111677 2199.29968149 1871.35178757 2199.30653572 C1870.06830046 2199.30696633 1868.78481336 2199.30739695 1867.4624327 2199.30784061 C1862.23505827 2199.30959896 1857.00768384 2199.31136861 1851.78030941 2199.31315363 C1789.1449878 2199.33450044 1726.50966585 2199.34542783 1663.87434142 2199.35431587 C1642.58837036 2199.35734001 1621.30239941 2199.36080077 1600.01642847 2199.36459708 C1599.29168838 2199.3647262 1598.56694829 2199.36485531 1597.82024637 2199.36498834 C1591.22293404 2199.36616386 1584.62562172 2199.36734304 1578.02830939 2199.3685256 C1503.4791844 2199.3818807 1428.93005907 2199.39427374 1277.06416706 2199.40928464 C1269.97338721 2199.40980909 1262.88260736 2199.41034641 1255.7918275 2199.4108831 C1253.4238351 2199.41106231 1251.05584269 2199.41124127 1248.68785028 2199.41142019 C1233.64485379 2199.41255725 1218.60185729 2199.41370333 1203.5588608 2199.41486839 C1199.59004783 2199.4151757 1195.62123486 2199.41548163 1191.65242189 2199.41578429 C1116.7023561 2199.42150353 1041.7522937 2199.43074444 966.80223083 2199.45320129 C965.61886688 2199.45355564 965.61886688 2199.45355564 964.41159659 2199.45391714 C938.96938889 2199.46154503 913.52718132 2199.46959384 888.08497376 2199.4777024 C863.58617435 2199.48551017 839.08737491 2199.49323366 814.58857536 2199.50059223 C813.4204009 2199.50094337 813.4204009 2199.50094337 812.22862695 2199.50130159 C763.44368889 2199.5159418 714.65875175 2199.5257411 665.87381172 2199.53046703 C664.7433429 2199.53057743 664.7433429 2199.53057743 663.59003632 2199.53069005 C630.48929783 2199.53391626 597.38855935 2199.53608451 564.28782071 2199.53707305 C550.97067018 2199.53747385 537.65351966 2199.53800724 524.33636914 2199.53860448 C522.12836319 2199.53870195 519.92035724 2199.53879433 517.7123513 2199.53888586 C483.95332691 2199.54031393 450.19430687 2199.54487596 416.43528509 2199.55876184 C415.3439083 2199.55921044 415.3439083 2199.55921044 414.2304835 2199.55966811 C402.52704145 2199.5644964 390.82359951 2199.56957839 379.12015758 2199.57469411 C345.88140598 2199.58921812 312.64265952 2199.60172957 279.4039042 2199.59997594 C278.39138876 2199.5999238 278.39138876 2199.5999238 277.35841846 2199.5998706 C263.28670505 2199.5991064 249.21499193 2199.59741289 235.14327877 2199.59456925 C228.60992477 2199.59325082 222.07657075 2199.59207277 215.54321671 2199.59097862 C214.26251679 2199.59075877 212.98181687 2199.59053893 211.66230786 2199.59031242 C191.39482636 2199.58719978 171.12737491 2199.59751804 150.85990037 2199.61345417 C130.92386009 2199.62885053 110.98786133 2199.62994689 91.05181959 2199.61590594 C79.36902181 2199.60810503 67.68635102 2199.61118284 56.00356597 2199.6305431 C48.23418424 2199.64231852 40.46489483 2199.63945052 32.69551803 2199.62492846 C28.29793458 2199.61711146 23.90059867 2199.61525509 19.50303281 2199.63154749 C-40.697449 2199.83988443 -96.41870155 2182.46330464 -143.4723053 2144.12025452 C-144.40163879 2143.36446106 -144.40163879 2143.36446106 -145.3497467 2142.59339905 C-157.98012532 2132.23493801 -169.39709178 2120.99609556 -179.4723053 2108.12025452 C-180.34040242 2107.05246839 -181.2102741 2105.98612312 -182.0816803 2104.92103577 C-209.36207059 2071.33096148 -228.03992278 2028.97568636 -234.0973053 1986.05775452 C-234.21847717 1985.25015686 -234.33964905 1984.4425592 -234.4644928 1983.61048889 C-235.97021447 1973.29138546 -236.62018377 1963.11104507 -236.5999558 1952.68476576 C-236.60160658 1951.47188311 -236.60325735 1950.25900047 -236.60495816 1949.00936381 C-236.6085198 1945.65321957 -236.6076394 1942.29713072 -236.60485637 1938.94098936 C-236.60292633 1935.27217123 -236.60682101 1931.60335834 -236.60995317 1927.93454167 C-236.6146594 1921.48315432 -236.61565335 1915.03177464 -236.61422482 1908.58038586 C-236.61210196 1898.92218284 -236.61571949 1889.26398776 -236.62043959 1879.60578597 C-236.62831056 1863.1445474 -236.63140152 1846.683311 -236.63188553 1830.22207069 C-236.6323879 1813.53831247 -236.63503463 1796.85455668 -236.64029312 1780.17079926 C-236.64062325 1779.11728854 -236.64095339 1778.06377782 -236.64129353 1776.97834254 C-236.64264352 1772.68757319 -236.64400619 1768.39680384 -236.64538563 1764.1060345 C-236.66168926 1713.30302344 -236.66807445 1662.50001285 -236.6728335 1611.69699962 C-236.6752167 1586.39913815 -236.67892017 1561.10127695 -236.6828706 1535.80341568 C-236.69553539 1454.65464196 -236.70631908 1373.50586825 -236.70971106 1292.35709356 C-236.7098733 1288.47848247 -236.71003886 1284.59987138 -236.71020544 1280.7212603 C-236.71053924 1272.9426514 -236.71086972 1265.16404251 -236.7112 1257.38543361 C-236.7115869 1248.27858306 -236.7119765 1239.1717325 -236.71237106 1230.06488195 C-236.71248348 1227.45842781 -236.7125949 1224.85197367 -236.71270532 1222.24551953 C-236.71625447 1138.54188917 -236.73133153 1054.8382674 -236.75464306 971.13464031 C-236.77138671 910.9896148 -236.7868606 850.8445909 -236.79137802 790.69956303 C-236.79147151 789.4624121 -236.79156499 788.22526117 -236.79166131 786.95062083 C-236.79368046 759.79070383 -236.79483642 732.63078686 -236.7951899 705.4708698 C-236.79532607 695.75216118 -236.79553506 686.03345256 -236.79578315 676.31474395 C-236.79584471 673.89698553 -236.79590303 671.4792271 -236.7959581 669.06146868 C-236.79687757 630.54995996 -236.80684169 592.03846021 -236.82141559 553.52695444 C-236.83603873 514.73000541 -236.84106898 475.93306738 -236.83299604 437.13611608 C-236.83188072 431.77098597 -236.83087004 426.40585585 -236.82992172 421.04072571 C-236.82973175 419.98904541 -236.82954179 418.93736512 -236.82934606 417.85381573 C-236.82661594 401.22370667 -236.83394305 384.59361799 -236.84549509 367.96351336 C-236.8566533 351.59755751 -236.85704972 335.23163038 -236.84612491 318.86567408 C-236.84004548 309.28016984 -236.84207767 299.69475244 -236.85637688 290.10925646 C-236.86506628 283.72870031 -236.86270578 277.34820751 -236.85167817 270.96765519 C-236.84574306 267.35998372 -236.84418368 263.75248142 -236.85636303 260.14482174 C-236.92979786 236.85187126 -235.57247528 213.94321161 -229.7848053 191.30775452 C-229.61178894 190.61689758 -229.43877258 189.92604065 -229.26051331 189.21424866 C-226.22723201 177.13763995 -222.55439617 165.50169091 -217.4723053 154.12025452 C-217.02870667 153.12590393 -216.58510803 152.13155334 -216.12806702 151.10707092 C-204.81047548 126.08257592 -190.87434998 102.57743618 -171.8394928 82.60462952 C-169.85308467 80.51988435 -167.9981099 78.39603667 -166.1598053 76.18275452 C-126.69588392 31.02781847 -59.85954738 -0.20914564 0 0 Z M-16.4723053 511.12025452 C-16.4723053 1000.84025452 -16.4723053 1490.56025452 -16.4723053 1995.12025452 C683.4576947 1995.12025452 1383.3876947 1995.12025452 2104.5276947 1995.12025452 C2104.5276947 1505.40025452 2104.5276947 1015.68025452 2104.5276947 511.12025452 C1404.5976947 511.12025452 704.6676947 511.12025452 -16.4723053 511.12025452 Z " fill="#FEFEFE" transform="translate(1429.4723052978516,1597.8797454833984)"/>
<path d="M0 0 C170.28 0 340.56 0 516 0 C516 108.9 516 217.8 516 330 C345.72 330 175.44 330 0 330 C0 221.1 0 112.2 0 0 Z " fill="#FEFEFE" transform="translate(2892,2690)"/>
<path d="M0 0 C170.28 0 340.56 0 516 0 C516 108.9 516 217.8 516 330 C345.72 330 175.44 330 0 330 C0 221.1 0 112.2 0 0 Z " fill="#FEFEFE" transform="translate(1539,2690)"/>
<path d="M0 0 C169.95 0 339.9 0 515 0 C515 108.9 515 217.8 515 330 C345.05 330 175.1 330 0 330 C0 221.1 0 112.2 0 0 Z " fill="#FEFEFE" transform="translate(2892,3152)"/>
<path d="M0 0 C169.95 0 339.9 0 515 0 C515 108.9 515 217.8 515 330 C345.05 330 175.1 330 0 330 C0 221.1 0 112.2 0 0 Z " fill="#FFFFFF" transform="translate(2216,3152)"/>
<path d="M0 0 C169.95 0 339.9 0 515 0 C515 108.9 515 217.8 515 330 C345.05 330 175.1 330 0 330 C0 221.1 0 112.2 0 0 Z " fill="#FEFEFE" transform="translate(1540,3152)"/>
<path d="M0 0 C169.95 0 339.9 0 515 0 C515 108.9 515 217.8 515 330 C345.05 330 175.1 330 0 330 C0 221.1 0 112.2 0 0 Z " fill="#FEFEFE" transform="translate(2216,2690)"/>
<path d="M0 0 C169.95 0 339.9 0 515 0 C515 108.9 515 217.8 515 330 C345.05 330 175.1 330 0 330 C0 221.1 0 112.2 0 0 Z " fill="#FEFEFE" transform="translate(2892,2229)"/>
<path d="M0 0 C169.95 0 339.9 0 515 0 C515 108.9 515 217.8 515 330 C345.05 330 175.1 330 0 330 C0 221.1 0 112.2 0 0 Z " fill="#FEFEFE" transform="translate(2216,2229)"/>
<path d="M0 0 C169.95 0 339.9 0 515 0 C515 108.9 515 217.8 515 330 C345.05 330 175.1 330 0 330 C0 221.1 0 112.2 0 0 Z " fill="#FEFEFE" transform="translate(1540,2229)"/>
<path d="M0 0 C1.55469889 1.31811428 3.09655753 2.65152772 4.625 4 C5.44226562 4.69738281 6.25953125 5.39476562 7.1015625 6.11328125 C30.00732989 26.07604757 46.48273846 54.42313646 49.625 85 C50.14777337 94.31138077 50.05171761 103.64754013 50.03183305 112.97059989 C50.02705688 116.75122437 50.03965007 120.53180016 50.04985046 124.31240845 C50.06695735 131.6984164 50.06789547 139.08433898 50.06263756 146.47036158 C50.05857954 152.47955933 50.06005868 158.48873204 50.06538582 164.49792862 C50.06613424 165.35647648 50.06688266 166.21502433 50.06765376 167.09958879 C50.0691854 168.84428509 50.07072375 170.58898138 50.07226873 172.33367766 C50.08596434 188.6574039 50.08057674 204.98108208 50.06908352 221.3048072 C50.05915348 236.20348763 50.07209309 251.10204383 50.09601771 266.00070511 C50.12046239 281.34009978 50.13000347 296.67943671 50.12336498 312.01885045 C50.11988476 320.61419548 50.12202529 329.20944505 50.13961601 337.80477524 C50.15440534 345.12129246 50.15488616 352.43764696 50.1375451 359.75416122 C50.12908784 363.47904435 50.12675444 367.20363765 50.14219666 370.92850494 C50.27340192 405.0538203 43.03187795 435.45913991 20.625 462 C19.45517578 463.41539062 19.45517578 463.41539062 18.26171875 464.859375 C-0.94298891 487.11294787 -31.03645009 503.10651916 -60.375 506 C-95.17392568 508.39128743 -127.85723266 499.09737091 -154.375 476 C-172.21125212 459.98236546 -184.91345018 440.65813315 -192.375 417.8125 C-192.6536792 416.97138672 -192.9323584 416.13027344 -193.21948242 415.26367188 C-198.31412019 398.57582494 -197.68270125 381.14786497 -197.68042648 363.89290035 C-197.68209376 360.23689042 -197.69519511 356.5809168 -197.70661926 352.92492676 C-197.72932158 344.95544192 -197.73737372 336.98598395 -197.74244571 329.01647115 C-197.74571979 324.0257365 -197.75225237 319.03500943 -197.7594471 314.0442791 C-197.77899314 300.18362842 -197.79540922 286.32298472 -197.79832363 272.46231937 C-197.7985112 271.57798415 -197.79869877 270.69364893 -197.79889202 269.78251567 C-197.79925824 267.99033765 -197.79962194 266.19815963 -197.79998314 264.40598161 C-197.80016595 263.51653649 -197.80034876 262.62709136 -197.80053711 261.71069336 C-197.80080793 260.37486762 -197.80080793 260.37486762 -197.80108423 259.01205551 C-197.80462177 244.59984083 -197.83162686 230.18777593 -197.869035 215.77561314 C-197.90727243 200.92322497 -197.92648223 186.07091083 -197.92678314 171.21847242 C-197.92736422 162.90176378 -197.93562836 154.58523395 -197.96478081 146.26857185 C-197.98950233 139.18426929 -197.99643956 132.10021076 -197.98153328 125.01587654 C-197.97444824 121.41359057 -197.97484854 117.81178435 -197.99794388 114.20955467 C-198.14193256 90.29113932 -195.94350095 67.72940667 -185.375 46 C-184.66730469 44.52080078 -184.66730469 44.52080078 -183.9453125 43.01171875 C-169.05079035 13.93794812 -142.41668863 -8.87908966 -111.375 -19 C-74.02222048 -30.55917096 -31.10724067 -24.33428003 0 0 Z " fill="#FEFEFE" transform="translate(3199.375,1366)"/>
<path d="M0 0 C0.91007812 0.76828125 1.82015625 1.5365625 2.7578125 2.328125 C3.75039062 3.15828125 4.74296875 3.9884375 5.765625 4.84375 C26.13510627 22.4088082 41.10131388 47.77327232 45.7578125 74.328125 C46.00773846 75.65250124 46.00773846 75.65250124 46.26271343 77.00363255 C48.37298008 90.0766165 48.0507145 103.24446361 48.03392088 116.45109046 C48.03143109 120.12602502 48.0404954 123.80093524 48.04795837 127.4758606 C48.06064458 134.65611239 48.06250677 141.83632667 48.06015811 149.01658779 C48.05836825 154.85753452 48.06013883 160.69846997 48.06438255 166.53941536 C48.06497774 167.3736979 48.06557293 168.20798044 48.06618616 169.06754427 C48.06739802 170.76288056 48.06861215 172.45821685 48.06982853 174.15355314 C48.08068027 190.01700292 48.07855259 205.8804314 48.07244369 221.74388237 C48.06727446 236.2268656 48.07853435 250.70978158 48.09754191 265.19275152 C48.11695541 280.1004336 48.1251703 295.00808391 48.12141865 309.9157787 C48.11951221 318.2707278 48.12193978 326.62561966 48.13613319 334.9805584 C48.14809273 342.09181853 48.1494008 349.20298615 48.13734303 356.31424766 C48.13148675 359.93554571 48.13026377 363.55667492 48.14234543 367.17796135 C48.2285397 394.88093587 48.2285397 394.88093587 44.7578125 408.328125 C44.53743978 409.23981666 44.31706705 410.15150831 44.09001637 411.09082699 C39.54663382 429.37940508 30.39617451 447.33107498 17.7578125 461.328125 C17.21672852 461.92818359 16.67564453 462.52824219 16.11816406 463.14648438 C-5.36350717 486.5485049 -35.57887288 502.859475 -67.78662109 504.45410156 C-100.43295799 505.34512268 -130.12820194 496.73897596 -155.2421875 475.328125 C-156.18320313 474.54953125 -157.12421875 473.7709375 -158.09375 472.96875 C-180.93717446 453.27836159 -196.38061445 423.38418449 -199.2421875 393.328125 C-199.39081864 389.15600449 -199.38570447 384.98618731 -199.38262939 380.81175232 C-199.38560052 379.54974804 -199.38857164 378.28774375 -199.3916328 376.98749691 C-199.39966958 373.49584896 -199.40149051 370.0042216 -199.40223026 366.51256549 C-199.40408664 362.74210048 -199.41163694 358.97164601 -199.41836548 355.20118713 C-199.43192607 346.96125647 -199.43797007 338.72133068 -199.44237614 330.48139071 C-199.44514261 325.3318266 -199.44938072 320.18226435 -199.45388031 315.03270149 C-199.46607039 300.76234652 -199.47636997 286.49199303 -199.4797554 272.22163296 C-199.48008475 270.8525953 -199.48008475 270.8525953 -199.48042075 269.45590032 C-199.48063903 268.54107957 -199.48085731 267.62625882 -199.4810822 266.68371624 C-199.48152566 264.8300784 -199.48197222 262.97644057 -199.48242188 261.12280273 C-199.4826433 260.20334301 -199.48286473 259.28388329 -199.48309287 258.33656115 C-199.48703849 243.44756449 -199.50448646 228.55861684 -199.5277814 213.6696391 C-199.55152979 198.36672002 -199.56395885 183.06382549 -199.56512332 167.76088768 C-199.56603816 159.1756063 -199.57174219 150.59038878 -199.58994293 142.00512505 C-199.60539111 134.69269878 -199.6104367 127.38035612 -199.60220483 120.06791662 C-199.59831485 116.34160525 -199.59914634 112.61546198 -199.61326218 108.8891716 C-199.6284707 104.83712254 -199.62008578 100.78544743 -199.60968018 96.73338318 C-199.61773658 95.57274383 -199.62579298 94.41210447 -199.63409352 93.21629423 C-199.58463426 84.93478356 -198.17705579 77.3620629 -196.2421875 69.328125 C-195.84409663 67.41192595 -195.44787743 65.49533569 -195.0546875 63.578125 C-187.3622088 33.49288107 -164.88656406 6.52917941 -138.54248047 -9.21777344 C-95.11582949 -34.15796257 -39.59443262 -31.54319702 0 0 Z " fill="#FEFEFE" transform="translate(1908.2421875,1367.671875)"/>
</svg>
